<svg width="112" height="51" viewBox="0 0 112 51" fill="none" xmlns="http://www.w3.org/2000/svg">
<path d="M43.5822 40.4813C36.7977 40.4813 30.0132 40.4813 23.2287 40.4813C17.9302 40.4813 11.4279 41.1165 6.6592 38.2906C2.08865 35.5822 0.155904 30.1775 1.40157 24.9872C2.85539 18.9296 9.64704 14.5245 14.705 11.8431C25.7174 6.00523 38.8931 4.112 51.1101 2.52278C62.8288 0.998409 74.7103 0.620791 86.5195 1.12871C94.0729 1.45359 99.5193 3.42658 105.399 8.05923C111.221 12.6461 112.806 23.1186 110.338 29.8864C104.144 46.8767 81.2345 47.7846 66.4449 49.0847C58.0673 49.8212 49.755 49.8017 41.3516 49.8017C35.5238 49.8017 29.5833 50.1854 24.3042 47.2525C21.4937 45.6911 20.6397 35.1154 20.6397 38.3305" stroke="#E4F85A" stroke-linecap="round" stroke-linejoin="round"/>
</svg>
