<svg width="373" height="46" viewBox="0 0 373 46" fill="none" xmlns="http://www.w3.org/2000/svg">
<g clip-path="url(#clip0)">
<path fill-rule="evenodd" clip-rule="evenodd" d="M355.454 5.69349C354.985 6.77862 354.75 7.95146 354.75 9.21214C354.75 10.5047 354.985 11.6975 355.454 12.7906C355.924 13.8836 356.562 14.8331 357.368 15.639C358.174 16.4448 359.112 17.0751 360.184 17.53C361.257 17.9847 362.395 18.2121 363.6 18.2121C364.789 18.2121 365.92 17.9847 366.992 17.53C368.064 17.0751 368.999 16.4448 369.797 15.639C370.595 14.8331 371.229 13.8836 371.699 12.7906C372.168 11.6975 372.403 10.5047 372.403 9.21214C372.403 7.95146 372.168 6.77862 371.699 5.69349C371.229 4.6084 370.595 3.66691 369.797 2.86903C368.999 2.07116 368.064 1.44483 366.992 0.990042C365.92 0.535253 364.789 0.307861 363.6 0.307861C362.395 0.307861 361.257 0.535253 360.184 0.990042C359.112 1.44483 358.174 2.07116 357.368 2.86903C356.562 3.66691 355.924 4.6084 355.454 5.69349ZM356.34 9.21225C356.34 10.3133 356.523 11.3306 356.891 12.2641C357.259 13.1976 357.767 14.0075 358.417 14.6936C359.066 15.3798 359.833 15.9184 360.718 16.3093C361.601 16.7003 362.56 16.8958 363.593 16.8958C364.61 16.8958 365.557 16.7003 366.433 16.3093C367.31 15.9184 368.073 15.3798 368.722 14.6936C369.372 14.0075 369.88 13.1976 370.248 12.2641C370.615 11.3306 370.8 10.3133 370.8 9.21225C370.8 8.14311 370.615 7.14577 370.248 6.22023C369.88 5.29469 369.372 4.49286 368.722 3.81465C368.073 3.13645 367.31 2.60188 366.433 2.21092C365.557 1.81996 364.61 1.62449 363.593 1.62449C362.56 1.62449 361.601 1.81996 360.718 2.21092C359.833 2.60188 359.066 3.13645 358.417 3.81465C357.767 4.49286 357.259 5.29469 356.891 6.22023C356.523 7.14577 356.34 8.14311 356.34 9.21225ZM364.135 4.01842H360.168V14.4785H361.764V9.97852H363.454L366.247 14.4785H367.961L365.027 9.85883C365.793 9.77906 366.435 9.51975 366.952 9.08092C367.468 8.6421 367.726 7.95194 367.726 7.01045C367.726 6.00513 367.433 5.25513 366.846 4.76045C366.259 4.26577 365.356 4.01842 364.135 4.01842ZM363.439 8.66349H361.772V5.33637H363.885C364.151 5.33637 364.421 5.35631 364.694 5.39621C364.968 5.43608 365.211 5.51187 365.422 5.62358C365.633 5.73529 365.806 5.89488 365.939 6.10232C366.072 6.30975 366.138 6.58903 366.138 6.94007C366.138 7.35498 366.064 7.67811 365.915 7.9095C365.767 8.1409 365.567 8.31241 365.317 8.42412C365.066 8.53583 364.777 8.60365 364.448 8.62757C364.119 8.65153 363.783 8.66349 363.439 8.66349Z" fill="#101010"/>
<path d="M28.7911 15.3256H40.7151C39.803 6.5352 31.8888 0.268555 21.6196 0.268555C9.90768 0.268555 0.402344 8.39595 0.402344 22.8541C0.402344 36.7134 9.01655 45.2686 21.7045 45.2686C33.077 45.2686 41.2243 38.2533 41.2243 26.2761V20.202H21.9591V28.6716H29.8519C29.7459 32.4786 27.0725 34.9169 21.7894 34.9169C15.6788 34.9169 12.5386 30.3826 12.5386 22.683C12.5386 15.0903 15.9334 10.6203 21.8742 10.6203C25.5661 10.6203 28.0697 12.3313 28.7911 15.3256Z" fill="#101010"/>
<path d="M87.5751 22.7686C87.5751 8.13929 78.2394 0.268555 66.4424 0.268555C54.5608 0.268555 45.3101 8.13929 45.3101 22.7686C45.3101 37.3123 54.5608 45.2686 66.4424 45.2686C78.2394 45.2686 87.5751 37.3978 87.5751 22.7686ZM75.4386 22.7686C75.4386 30.6393 72.2983 34.9169 66.4424 34.9169C60.5865 34.9169 57.4462 30.6393 57.4462 22.7686C57.4462 14.8978 60.5865 10.6203 66.4424 10.6203C72.2983 10.6203 75.4386 14.8978 75.4386 22.7686Z" fill="#101010"/>
<path d="M133.883 22.7686C133.883 8.13929 124.548 0.268555 112.751 0.268555C100.869 0.268555 91.6187 8.13929 91.6187 22.7686C91.6187 37.3123 100.869 45.2686 112.751 45.2686C124.548 45.2686 133.883 37.3978 133.883 22.7686ZM121.747 22.7686C121.747 30.6393 118.607 34.9169 112.751 34.9169C106.895 34.9169 103.755 30.6393 103.755 22.7686C103.755 14.8978 106.895 10.6203 112.751 10.6203C118.607 10.6203 121.747 14.8978 121.747 22.7686Z" fill="#101010"/>
<path d="M154.816 44.6695C168.056 44.6695 176.458 36.4565 176.458 22.7683C176.458 9.08012 168.056 0.867188 154.647 0.867188H138.097V44.6695H154.816ZM149.894 34.5744V10.9623H154.052C160.842 10.9623 164.576 13.6143 164.576 22.7683C164.576 31.9223 160.842 34.5744 154.392 34.5744H149.894Z" fill="#101010"/>
<path d="M210.881 18.011H181.007V27.7114H210.881V18.011Z" fill="#101010"/>
<path d="M227.973 0.867188H216.176V44.6695H227.973V0.867188Z" fill="#101010"/>
<path d="M250.282 44.6695C263.522 44.6695 271.924 36.4565 271.924 22.7683C271.924 9.08012 263.522 0.867188 250.113 0.867188H233.563V44.6695H250.282ZM245.36 34.5744V10.9623H249.518C256.308 10.9623 260.042 13.6143 260.042 22.7683C260.042 31.9223 256.308 34.5744 249.858 34.5744H245.36Z" fill="#101010"/>
<path d="M276.004 44.6695H307.236V35.0877H287.801V27.5592H305.709V17.9775H287.801V10.4489H307.321V0.867188H276.004V44.6695Z" fill="#101010"/>
<path d="M322.965 44.6695L325.468 36.2854H339.811L342.315 44.6695H355.045L340.702 0.867188H324.577L310.234 44.6695H322.965ZM328.142 27.3881L332.47 12.9299H332.809L337.138 27.3881H328.142Z" fill="#101010"/>
</g>
<defs>
<clipPath id="clip0">
<rect width="372" height="45" fill="white" transform="translate(0.402344 0.268555)"/>
</clipPath>
</defs>
</svg>
