<svg width="172" height="16" viewBox="0 0 172 16" fill="none" xmlns="http://www.w3.org/2000/svg">
<path d="M15.5547 12.6857C15.5196 12.8497 15.4434 12.9845 15.3262 13.09C15.2207 13.1837 15.0918 13.2599 14.9395 13.3185C14.7871 13.3771 14.6289 13.4181 14.4649 13.4415C14.3125 13.4532 14.1719 13.4591 14.043 13.4591C13.9844 13.4591 13.9258 13.4591 13.8672 13.4591C13.8203 13.4474 13.7676 13.4415 13.709 13.4415C13.6504 13.4415 13.6211 13.4708 13.6211 13.5294C13.6211 13.588 13.5918 13.629 13.5332 13.6525C13.4746 13.629 13.416 13.6115 13.3574 13.5997C13.2989 13.588 13.2403 13.5822 13.1817 13.5822C13.0996 13.5822 13.0176 13.588 12.9356 13.5997C12.8653 13.6115 12.7949 13.6173 12.7246 13.6173C12.6309 13.6173 12.5606 13.6056 12.5137 13.5822C12.4785 13.5587 12.4434 13.5353 12.4082 13.5118C12.3848 13.4767 12.3555 13.4415 12.3203 13.4064C12.2969 13.3712 12.2559 13.3419 12.1973 13.3185C12.1153 13.2833 12.0449 13.2775 11.9864 13.3009C11.9395 13.3243 11.8633 13.2892 11.7578 13.1954C11.6172 13.0782 11.4942 12.9376 11.3887 12.7736C11.2949 12.5978 11.2012 12.4161 11.1074 12.2286C11.0137 12.0411 10.9141 11.8536 10.8086 11.6661C10.7031 11.4786 10.5801 11.3146 10.4395 11.174H10.2989C10.0879 11.174 9.94143 11.2618 9.8594 11.4376C9.8008 11.4025 9.74221 11.3615 9.68362 11.3146C9.62502 11.256 9.56057 11.2091 9.49026 11.174C9.22073 11.256 8.93948 11.3263 8.64651 11.3849C8.35354 11.4435 8.06057 11.4728 7.7676 11.4728H7.52151C7.45119 11.4728 7.37502 11.4611 7.29299 11.4376C7.1758 11.4845 7.07034 11.5431 6.97659 11.6134C6.88284 11.672 6.77737 11.7013 6.66018 11.7013C6.58987 11.7013 6.50784 11.6779 6.41409 11.631C6.34377 11.631 6.30862 11.6603 6.30862 11.7189C6.32034 11.7775 6.28518 11.8068 6.20315 11.8068H6.04494C5.88088 11.8068 5.71682 11.8126 5.55276 11.8243C5.40041 11.8361 5.24221 11.8419 5.07815 11.8419C4.85549 11.8419 4.62698 11.8126 4.3926 11.754C4.33401 11.7892 4.26955 11.8068 4.19924 11.8068C4.15237 11.8302 4.11721 11.8712 4.09377 11.9298C4.07034 11.9767 4.0469 12.0236 4.02346 12.0704C4.00002 12.1056 3.96487 12.1407 3.91799 12.1759C3.88284 12.1993 3.8301 12.2052 3.75979 12.1935C3.73635 12.3341 3.67776 12.4454 3.58401 12.5275C3.49026 12.6095 3.44338 12.7325 3.44338 12.8966C3.31448 12.9669 3.20901 13.0548 3.12698 13.1603C3.04494 13.2657 2.96291 13.3771 2.88088 13.4943C2.79885 13.6115 2.71096 13.7228 2.61721 13.8282C2.53518 13.9337 2.42971 14.0157 2.3008 14.0743C2.24221 14.1447 2.22463 14.256 2.24807 14.4083C2.11916 14.5138 1.96096 14.6075 1.77346 14.6896C1.58596 14.7716 1.41018 14.8126 1.24612 14.8126C0.906273 14.8126 0.671898 14.631 0.542992 14.2677C0.542992 14.1505 0.55471 14.0275 0.578148 13.8986C0.589867 13.7579 0.613304 13.629 0.64846 13.5118C0.683617 13.3829 0.736351 13.2716 0.806664 13.1779C0.876976 13.0724 0.976585 12.9962 1.10549 12.9493C1.10549 12.8439 1.07034 12.7736 1.00002 12.7384C0.92971 12.6915 0.900414 12.6154 0.912132 12.5099C1.22854 12.3575 1.50393 12.1583 1.7383 11.9122C1.97268 11.6661 2.18362 11.4083 2.37112 11.1388C2.57034 10.8575 2.76955 10.5763 2.96877 10.295C3.16799 10.0138 3.39065 9.76184 3.63674 9.53918V9.17004C3.9883 8.79504 4.21682 8.37317 4.32229 7.90442C4.45119 7.88098 4.53323 7.82239 4.56838 7.72864C4.61526 7.63489 4.63869 7.52356 4.63869 7.39465C4.69729 7.39465 4.73244 7.37122 4.74416 7.32434C4.7676 7.26575 4.82034 7.24817 4.90237 7.27161C5.00784 6.99036 5.12502 6.73254 5.25393 6.49817C5.38284 6.26379 5.51174 6.02942 5.64065 5.79504C5.76955 5.54895 5.88088 5.297 5.97463 5.03918C6.0801 4.78137 6.15627 4.49426 6.20315 4.17786C6.36721 4.16614 6.4551 4.08997 6.46682 3.94934C6.49026 3.797 6.51369 3.66223 6.53713 3.54504C6.71291 3.38098 6.84182 3.18762 6.92385 2.96497C7.0176 2.74231 7.09963 2.51379 7.16994 2.27942C7.24026 2.03333 7.31643 1.79309 7.39846 1.55872C7.49221 1.31262 7.62112 1.09583 7.78518 0.908325V0.855591C7.78518 0.796997 7.76174 0.761841 7.71487 0.750122C7.66799 0.726685 7.64455 0.685669 7.64455 0.627075C7.65627 0.615356 7.66213 0.603638 7.66213 0.591919C7.80276 0.533325 7.90823 0.439575 7.97854 0.310669C8.04885 0.170044 8.15432 0.0704346 8.29494 0.0118408C8.54104 0.21106 8.75784 0.334106 8.94534 0.380981C9.13284 0.416138 9.37893 0.445435 9.68362 0.468872C9.83596 0.632935 9.91799 0.832153 9.92971 1.06653C9.95315 1.28918 9.99416 1.51184 10.0528 1.7345C10.1465 2.1095 10.2461 2.47864 10.3516 2.84192C10.4688 3.19348 10.5567 3.55676 10.6153 3.93176C10.6504 4.15442 10.7149 4.36536 10.8086 4.56458C10.9024 4.76379 10.9668 4.96887 11.002 5.17981C11.0254 5.34387 11.0254 5.53137 11.002 5.74231C10.9785 5.94153 11.002 6.11731 11.0723 6.26965L11.1953 6.5509C11.2539 6.67981 11.3008 6.81458 11.336 6.9552C11.3828 7.09583 11.4239 7.23645 11.459 7.37708C11.5528 7.72864 11.6348 8.1095 11.7051 8.51965C11.7871 8.91809 11.9102 9.28137 12.0742 9.6095C12.1328 9.72668 12.2207 9.80872 12.3379 9.85559C12.4668 9.90247 12.6074 9.93762 12.7598 9.96106C12.9121 9.97278 13.0586 9.97864 13.1992 9.97864C13.3516 9.96692 13.4805 9.96106 13.586 9.96106H13.7617C13.8321 9.96106 13.9024 9.97278 13.9727 9.99622C14.0196 10.09 14.043 10.172 14.043 10.2423C14.043 10.3829 13.9961 10.4943 13.9024 10.5763C13.8086 10.6583 13.7617 10.7521 13.7617 10.8575C13.7617 10.9161 13.7852 10.9806 13.8321 11.0509C13.7852 11.0392 13.7149 11.0333 13.6211 11.0333C13.3516 11.0333 13.0879 11.0802 12.8301 11.174C12.9239 11.3732 13.0469 11.5431 13.1992 11.6837C13.3633 11.8126 13.5332 11.9357 13.709 12.0529C13.8262 11.9591 13.9492 11.9122 14.0781 11.9122C14.2188 11.9122 14.3477 11.9474 14.4649 12.0177C14.5938 12.0763 14.7285 12.1056 14.8692 12.1056C14.9746 12.1056 15.0508 12.088 15.0977 12.0529C15.1914 12.1583 15.2676 12.2697 15.3262 12.3868C15.3848 12.4923 15.461 12.5919 15.5547 12.6857ZM10.0528 9.87317C10.0293 9.67395 9.9883 9.53333 9.92971 9.45129C9.88284 9.35754 9.84182 9.24622 9.80666 9.11731C9.75979 8.95325 9.72463 8.77747 9.70119 8.58997C9.68948 8.40247 9.66604 8.22083 9.63088 8.04504C9.54885 7.64661 9.4551 7.24817 9.34963 6.84973C9.25588 6.45129 9.13284 6.06458 8.98049 5.68958C9.02737 5.61926 9.0508 5.55481 9.0508 5.49622V5.44348C8.94534 5.32629 8.86916 5.18567 8.82229 5.02161C8.77541 4.84583 8.72854 4.6759 8.68166 4.51184C8.64651 4.33606 8.59377 4.17786 8.52346 4.03723C8.46487 3.88489 8.36526 3.76184 8.22463 3.66809C8.18948 3.7384 8.1719 3.82043 8.1719 3.91418C8.1719 3.99622 8.17776 4.07239 8.18948 4.1427C8.21291 4.21301 8.22463 4.28918 8.22463 4.37122C8.10744 4.42981 8.01955 4.52356 7.96096 4.65247C7.91409 4.76965 7.83205 4.8634 7.71487 4.93372C7.62112 5.30872 7.48635 5.66614 7.31057 6.00598C7.13479 6.33411 6.94729 6.66223 6.74807 6.99036C6.56057 7.31848 6.37893 7.65247 6.20315 7.99231C6.02737 8.32043 5.88674 8.66614 5.78127 9.02942C5.62893 9.13489 5.52346 9.26965 5.46487 9.43372C5.41799 9.59778 5.39455 9.76184 5.39455 9.9259C5.50002 9.9845 5.61721 10.0197 5.74612 10.0314C5.88674 10.0314 6.02151 10.0314 6.15041 10.0314C6.27932 10.0314 6.40237 10.0431 6.51955 10.0665C6.63674 10.09 6.74221 10.1486 6.83596 10.2423C6.9883 10.1954 7.15237 10.1661 7.32815 10.1544C7.51565 10.131 7.66799 10.0782 7.78518 9.99622C8.01955 10.0782 8.27151 10.1193 8.54104 10.1193C8.68166 10.1193 8.81643 10.1075 8.94534 10.0841C9.08596 10.0607 9.22073 10.0314 9.34963 9.99622C9.4551 10.0197 9.53713 10.0607 9.59573 10.1193C9.65432 10.1661 9.74221 10.1837 9.8594 10.172C9.91799 10.1251 9.95315 10.0782 9.96487 10.0314C9.97659 9.97278 10.0059 9.92004 10.0528 9.87317ZM40.7533 4.24817C40.7181 4.35364 40.6478 4.42981 40.5424 4.47668C40.4486 4.51184 40.349 4.54114 40.2435 4.56458C40.1381 4.58801 40.0385 4.62903 39.9447 4.68762C39.8627 4.7345 39.8099 4.81653 39.7865 4.93372L39.7514 4.95129C39.7045 4.95129 39.6693 4.93958 39.6459 4.91614C39.6342 4.88098 39.6224 4.85168 39.6107 4.82825C39.599 4.79309 39.5814 4.76379 39.558 4.74036C39.5463 4.7052 39.5228 4.68762 39.4877 4.68762C39.3588 4.68762 39.2299 4.69934 39.101 4.72278C38.9838 4.74622 38.8666 4.75793 38.7494 4.75793C38.5736 4.75793 38.4154 4.7345 38.2748 4.68762C38.1928 4.71106 38.1459 4.76379 38.1342 4.84583C38.1342 4.92786 38.099 4.98059 38.0287 5.00403C37.9701 5.02747 37.8998 5.03918 37.8178 5.03918C37.7357 5.02747 37.6537 5.03333 37.5717 5.05676L37.0092 5.19739C36.8217 5.24426 36.6342 5.2677 36.4467 5.2677C36.3412 5.2677 36.265 5.26184 36.2181 5.25012C36.0424 5.39075 35.8431 5.49622 35.6205 5.56653C35.3978 5.62512 35.1635 5.68372 34.9174 5.74231C34.683 5.78918 34.4486 5.85364 34.2142 5.93567C33.9916 6.0177 33.7924 6.14661 33.6166 6.32239C33.5228 6.29895 33.4408 6.28723 33.3705 6.28723C33.2181 6.28723 33.0834 6.32239 32.9662 6.3927C32.849 6.45129 32.726 6.50989 32.5971 6.56848C32.5385 6.59192 32.4799 6.60364 32.4213 6.60364C32.3627 6.60364 32.2982 6.61536 32.2279 6.63879C32.1576 6.66223 32.1107 6.70325 32.0873 6.76184C32.0756 6.80872 32.0404 6.85559 31.9818 6.90247C31.9818 7.32434 32.0228 7.74622 32.1049 8.16809C32.1869 8.57825 32.2279 8.99426 32.2279 9.41614V9.48645C32.2514 9.68567 32.3158 9.87317 32.4213 10.049C32.5267 10.213 32.5795 10.3829 32.5795 10.5587C32.5795 10.6173 32.5678 10.6818 32.5443 10.7521C32.849 10.8224 33.0482 10.9806 33.142 11.2267C33.2474 11.4611 33.3295 11.7189 33.3881 12.0001C33.4584 12.2697 33.5463 12.5216 33.6517 12.756C33.7689 12.9904 33.9916 13.1368 34.3197 13.1954C34.3431 13.3126 34.3607 13.4357 34.3724 13.5646C34.3842 13.6818 34.39 13.799 34.39 13.9161C34.39 14.0802 34.3724 14.2384 34.3373 14.3907C34.3021 14.5548 34.2318 14.7013 34.1264 14.8302C33.9506 14.8419 33.8217 14.8478 33.7396 14.8478C33.6576 14.8478 33.5346 14.8829 33.3705 14.9532C33.1361 14.8126 32.9252 14.6486 32.7377 14.4611C32.5619 14.2853 32.392 14.0978 32.2279 13.8986C32.0756 13.6876 31.9232 13.4767 31.7709 13.2657C31.6185 13.0431 31.4545 12.8322 31.2787 12.6329C30.6693 12.7853 30.0424 12.8907 29.3978 12.9493C28.765 12.9962 28.1322 13.0197 27.4994 13.0197C27.476 13.0431 27.4408 13.0548 27.3939 13.0548C27.3471 13.0548 27.3002 13.0607 27.2533 13.0724C27.2181 13.0724 27.183 13.0841 27.1478 13.1075C27.1244 13.1193 27.1185 13.1486 27.1303 13.1954C27.0482 13.1486 26.9545 13.1193 26.849 13.1075C26.7553 13.0841 26.6674 13.0724 26.5853 13.0724C26.5267 13.0724 26.4681 13.0782 26.4096 13.09C26.351 13.09 26.2924 13.1075 26.2338 13.1427C25.7885 13.0607 25.3549 12.9493 24.933 12.8087C24.5228 12.6564 24.101 12.5333 23.6674 12.4396C23.6674 12.3458 23.6439 12.2814 23.5971 12.2462C23.5502 12.1993 23.5092 12.1349 23.474 12.0529C22.9818 11.7482 22.5658 11.379 22.226 10.9454C21.8978 10.5118 21.7631 9.9845 21.8217 9.3634L21.6986 9.11731C21.6986 8.92981 21.7396 8.79504 21.8217 8.71301C21.7748 8.63098 21.6928 8.54895 21.5756 8.46692C21.681 8.30286 21.7748 8.13293 21.8568 7.95715C21.9389 7.78137 21.9974 7.59387 22.0326 7.39465C22.0443 7.33606 22.0502 7.28333 22.0502 7.23645C22.0502 7.18958 22.0619 7.13684 22.0853 7.07825C22.1088 7.00793 22.1439 6.93176 22.1908 6.84973C22.226 6.75598 22.2611 6.67395 22.2963 6.60364C22.4838 6.2052 22.6889 5.82434 22.9115 5.46106C23.1459 5.08606 23.4389 4.76379 23.7904 4.49426C23.8139 4.29504 23.8724 4.13098 23.9662 4.00208C24.0599 3.86145 24.1596 3.7384 24.265 3.63293C24.3822 3.51575 24.4935 3.39856 24.599 3.28137C24.7162 3.16418 24.8041 3.02356 24.8627 2.8595C25.0971 2.66028 25.3314 2.46692 25.5658 2.27942C25.8119 2.09192 26.017 1.86926 26.181 1.61145C26.392 1.54114 26.5912 1.45325 26.7787 1.34778C26.9662 1.23059 27.1244 1.08411 27.2533 0.908325C27.5346 0.884888 27.8099 0.832153 28.0795 0.750122C28.3607 0.668091 28.6537 0.627075 28.9584 0.627075C29.0873 0.627075 29.2396 0.656372 29.4154 0.714966C29.6029 0.761841 29.7435 0.849731 29.8373 0.978638C29.849 1.00208 29.8549 1.03137 29.8549 1.06653L29.8724 1.15442C29.8842 1.17786 29.8959 1.20129 29.9076 1.22473C29.931 1.23645 29.9662 1.23645 30.0131 1.22473C30.0131 1.48254 29.9838 1.74622 29.9252 2.01575C29.8666 2.27356 29.7142 2.47278 29.4681 2.6134C29.3158 2.56653 29.1517 2.54309 28.976 2.54309C28.7416 2.54309 28.5248 2.58997 28.3256 2.68372C28.1381 2.76575 27.9506 2.86536 27.7631 2.98254C27.5873 3.08801 27.4056 3.19934 27.2181 3.31653C27.0306 3.422 26.8314 3.49817 26.6205 3.54504C26.5971 3.63879 26.5736 3.72668 26.5502 3.80872C26.5385 3.87903 26.5443 3.96106 26.5678 4.05481C26.5092 4.05481 26.4623 4.04895 26.4271 4.03723C26.4037 4.01379 26.3627 4.00208 26.3041 4.00208C26.2221 4.00208 26.1635 4.04895 26.1283 4.1427C26.1049 4.23645 26.0814 4.31262 26.058 4.37122C25.8353 4.46497 25.6478 4.59973 25.4955 4.77551C25.3549 4.93958 25.2201 5.12122 25.0912 5.32043C24.974 5.50793 24.8451 5.68958 24.7045 5.86536C24.5639 6.04114 24.3881 6.1759 24.1771 6.26965C24.0834 6.64465 23.9896 7.01379 23.8959 7.37708C23.8139 7.74036 23.7142 8.10364 23.5971 8.46692C23.6322 8.60754 23.6498 8.75403 23.6498 8.90637C23.6498 9.09387 23.6322 9.26379 23.5971 9.41614C23.6556 9.50989 23.7142 9.62122 23.7728 9.75012L23.9838 10.1544C24.0541 10.295 24.1244 10.424 24.1947 10.5411C24.2767 10.6583 24.3529 10.7462 24.4232 10.8048C24.5521 10.8986 24.7514 10.9865 25.0209 11.0685C25.2904 11.1388 25.5306 11.2618 25.7416 11.4376C25.765 11.4376 25.7943 11.4376 25.8295 11.4376C25.8646 11.4259 25.8939 11.42 25.9174 11.42C26.058 11.42 26.2103 11.4552 26.3744 11.5255C26.5385 11.5958 26.6439 11.631 26.6908 11.631C27.3471 11.631 28.0619 11.59 28.8353 11.5079C29.6088 11.4142 30.3236 11.3029 30.9799 11.174C31.0033 11.0568 31.015 10.9572 31.015 10.8751C31.015 10.7228 30.9916 10.5763 30.9447 10.4357C30.8978 10.2833 30.8217 10.1544 30.7162 10.049C30.7162 9.87317 30.7162 9.69739 30.7162 9.52161C30.7279 9.34583 30.7338 9.17004 30.7338 8.99426C30.7338 8.70129 30.7221 8.39075 30.6986 8.06262C30.6752 7.7345 30.6166 7.42981 30.5228 7.14856H30.4877C30.3353 7.14856 30.1947 7.18958 30.0658 7.27161C29.9486 7.34192 29.8256 7.37708 29.6967 7.37708C29.6264 7.37708 29.5678 7.3595 29.5209 7.32434C29.3803 7.4884 29.2103 7.61145 29.0111 7.69348C28.8119 7.77551 28.601 7.85168 28.3783 7.922C28.1556 7.98059 27.933 8.04504 27.7103 8.11536C27.4994 8.18567 27.306 8.28528 27.1303 8.41418C27.0365 8.37903 26.9486 8.36145 26.8666 8.36145C26.7846 8.36145 26.7025 8.36731 26.6205 8.37903C26.5502 8.39075 26.4681 8.40247 26.3744 8.41418C26.1283 8.20325 26.0053 7.93958 26.0053 7.62317C26.0053 7.45911 26.0287 7.3009 26.0756 7.14856C26.1342 6.9845 26.2103 6.83215 26.3041 6.69153C26.3627 6.65637 26.433 6.63879 26.515 6.63879C26.5971 6.62708 26.6791 6.61536 26.7611 6.60364C26.8431 6.5802 26.9076 6.5509 26.9545 6.51575C27.0131 6.48059 27.0482 6.41614 27.0599 6.32239C27.0951 6.35754 27.1244 6.37512 27.1478 6.37512C27.1713 6.37512 27.1947 6.36926 27.2181 6.35754C27.2416 6.34583 27.265 6.33997 27.2885 6.33997C27.3119 6.33997 27.3295 6.35168 27.3412 6.37512C27.3646 6.39856 27.3764 6.422 27.3764 6.44543C27.8803 6.1759 28.3959 5.94739 28.9232 5.75989C29.4506 5.57239 29.9838 5.40247 30.5228 5.25012C31.0736 5.09778 31.6244 4.95715 32.1752 4.82825C32.726 4.68762 33.2709 4.53528 33.8099 4.37122C33.892 4.3009 33.9799 4.24817 34.0736 4.21301C34.1674 4.17786 34.2494 4.12512 34.3197 4.05481C34.4017 4.10168 34.5014 4.12512 34.6185 4.12512C34.7826 4.12512 34.9584 4.09583 35.1459 4.03723C35.3451 3.96692 35.5092 3.88489 35.6381 3.79114C35.6849 3.80286 35.726 3.80872 35.7611 3.80872H35.8842C36.1185 3.80872 36.3353 3.77356 36.5346 3.70325C36.7455 3.63293 36.9506 3.53918 37.1498 3.422H37.2377C37.601 3.422 37.9584 3.38098 38.3099 3.29895C38.6732 3.21692 39.0424 3.1759 39.4174 3.1759C39.8978 3.1759 40.3197 3.29895 40.683 3.54504V3.75598C40.683 3.84973 40.683 3.93762 40.683 4.01965C40.6947 4.08997 40.7181 4.16614 40.7533 4.24817ZM46.6202 3.79114C46.5499 3.89661 46.5089 4.01379 46.4971 4.1427C46.4854 4.27161 46.4796 4.38879 46.4796 4.49426C46.4796 4.63489 46.4796 4.77551 46.4796 4.91614C46.4913 5.04504 46.4971 5.17395 46.4971 5.30286V5.56653C46.4737 5.64856 46.4385 5.73059 46.3917 5.81262C46.3448 5.89465 46.3096 5.97668 46.2862 6.05872C46.1221 6.49231 46.0401 6.9259 46.0401 7.3595V7.39465C45.9815 7.53528 45.9229 7.66418 45.8643 7.78137C45.8174 7.89856 45.7706 8.01575 45.7237 8.13293C45.6768 8.2384 45.6417 8.35559 45.6182 8.4845C45.5948 8.60168 45.5889 8.74231 45.6006 8.90637C45.4366 9.31653 45.2198 9.69153 44.9503 10.0314C44.6807 10.3595 44.4171 10.6993 44.1592 11.0509C43.9131 11.1447 43.6846 11.2677 43.4737 11.42C43.2745 11.5724 43.0811 11.7423 42.8936 11.9298C42.5303 12.047 42.1729 12.1818 41.8214 12.3341C41.4698 12.4865 41.1534 12.6915 40.8721 12.9493C40.6495 12.9728 40.4268 13.0079 40.2042 13.0548C39.9815 13.1017 39.7647 13.172 39.5538 13.2657H39.3428C39.2374 13.2657 39.1612 13.2423 39.1143 13.1954C38.962 13.2775 38.8038 13.3361 38.6397 13.3712C38.4756 13.3947 38.3116 13.4064 38.1475 13.4064C37.9366 13.4064 37.7256 13.3947 37.5147 13.3712C37.3155 13.3361 37.1104 13.3009 36.8995 13.2657C36.7823 13.1017 36.6182 12.9786 36.4073 12.8966C36.1964 12.8029 36.0089 12.715 35.8448 12.6329C35.5049 12.1642 35.2589 11.713 35.1065 11.2794C34.9542 10.8341 34.796 10.3361 34.6319 9.78528C34.6553 9.62122 34.6964 9.46301 34.7549 9.31067C34.8135 9.14661 34.837 8.97083 34.8253 8.78333C35.0362 8.17395 35.3116 7.62317 35.6514 7.13098C36.003 6.62708 36.4014 6.14661 36.8467 5.68958C36.8467 5.61926 36.8585 5.56067 36.8819 5.51379C36.9171 5.46692 36.9229 5.39661 36.8995 5.30286C36.9112 5.31458 36.9346 5.32043 36.9698 5.32043C37.0635 5.32043 37.1221 5.297 37.1456 5.25012C37.169 5.19153 37.1749 5.12708 37.1631 5.05676C37.585 4.78723 37.9659 4.47668 38.3057 4.12512C38.6573 3.77356 39.0557 3.48059 39.501 3.24622C39.5362 3.14075 39.5948 3.05286 39.6768 2.98254C39.7589 2.91223 39.8233 2.8302 39.8702 2.73645C40.2452 2.63098 40.585 2.47278 40.8897 2.26184C41.1944 2.0509 41.5167 1.8634 41.8565 1.69934C42.044 1.59387 42.2198 1.52356 42.3839 1.4884C42.5596 1.44153 42.7471 1.39465 42.9464 1.34778C43.0167 1.32434 43.0811 1.30676 43.1397 1.29504C43.1983 1.28333 43.2628 1.27747 43.3331 1.27747C43.544 1.27747 43.7491 1.31848 43.9483 1.40051C44.1475 1.47083 44.3526 1.50598 44.5635 1.50598C44.6221 1.50598 44.669 1.50598 44.7042 1.50598C44.751 1.49426 44.7979 1.48254 44.8448 1.47083C45.044 1.71692 45.296 1.90442 45.6006 2.03333C45.671 2.20911 45.753 2.36145 45.8467 2.49036C45.9522 2.61926 46.0577 2.74817 46.1631 2.87708C46.2686 2.99426 46.3624 3.12903 46.4444 3.28137C46.5381 3.422 46.5967 3.59192 46.6202 3.79114ZM44.8624 4.7052C44.8624 4.64661 44.8565 4.59387 44.8448 4.547C44.7276 4.51184 44.6163 4.46497 44.5108 4.40637C44.4053 4.34778 44.2881 4.31848 44.1592 4.31848C44.0772 4.31848 43.9952 4.33606 43.9131 4.37122C43.9014 4.28918 43.8663 4.23059 43.8077 4.19543C43.7608 4.16028 43.7022 4.13098 43.6319 4.10754C43.5733 4.07239 43.5089 4.04895 43.4385 4.03723C43.3799 4.01379 43.3272 3.97864 43.2803 3.93176C43.2452 3.83801 43.2042 3.74426 43.1573 3.65051C43.1221 3.54504 43.0518 3.46887 42.9464 3.422C42.8409 3.52747 42.7178 3.61536 42.5772 3.68567C42.4366 3.74426 42.2901 3.80286 42.1378 3.86145C41.9971 3.92004 41.8565 3.99036 41.7159 4.07239C41.587 4.15442 41.4756 4.25403 41.3819 4.37122H41.0655C40.9952 4.50012 40.8956 4.59973 40.7667 4.67004C40.6378 4.72864 40.5264 4.81653 40.4327 4.93372C40.2452 5.02747 40.0694 5.14465 39.9053 5.28528C39.753 5.41418 39.6006 5.55481 39.4483 5.70715C39.296 5.84778 39.1436 5.99426 38.9913 6.14661C38.8506 6.29895 38.6983 6.43958 38.5342 6.56848C38.3819 6.89661 38.212 7.18372 38.0245 7.42981C37.8487 7.66418 37.6788 7.90442 37.5147 8.15051C37.3624 8.39661 37.2276 8.66614 37.1104 8.95911C37.0049 9.24036 36.9522 9.59192 36.9522 10.0138V10.1896C36.9522 10.2482 36.9581 10.3068 36.9698 10.3654C37.1221 10.5294 37.2452 10.7052 37.3389 10.8927C37.4444 11.0802 37.6143 11.215 37.8487 11.297C38.0831 11.3907 38.3292 11.4318 38.587 11.42C38.8565 11.4083 39.1143 11.4376 39.3604 11.5079C39.9229 11.4025 40.462 11.2325 40.9776 10.9982C41.5049 10.7521 42.003 10.4591 42.4717 10.1193C42.5421 10.0607 42.6241 10.0021 42.7178 9.94348C42.8116 9.87317 42.8878 9.80286 42.9464 9.73254C43.0049 9.67395 43.0518 9.6095 43.087 9.53918C43.1339 9.46887 43.1807 9.40442 43.2276 9.34583C43.3214 9.19348 43.4268 9.04114 43.544 8.88879C43.6612 8.73645 43.7842 8.59583 43.9131 8.46692C43.9717 8.20911 44.0479 7.96301 44.1417 7.72864C44.2354 7.48254 44.3292 7.24231 44.4229 7.00793C44.5167 6.77356 44.5928 6.53333 44.6514 6.28723C44.7217 6.04114 44.7569 5.78333 44.7569 5.51379C44.7569 5.4552 44.751 5.39075 44.7393 5.32043C44.7393 5.25012 44.7335 5.18567 44.7217 5.12708C44.8155 4.99817 44.8624 4.85754 44.8624 4.7052ZM58.78 3.79114C58.7097 3.89661 58.6687 4.01379 58.657 4.1427C58.6453 4.27161 58.6394 4.38879 58.6394 4.49426C58.6394 4.63489 58.6394 4.77551 58.6394 4.91614C58.6511 5.04504 58.657 5.17395 58.657 5.30286V5.56653C58.6335 5.64856 58.5984 5.73059 58.5515 5.81262C58.5046 5.89465 58.4695 5.97668 58.446 6.05872C58.282 6.49231 58.2 6.9259 58.2 7.3595V7.39465C58.1414 7.53528 58.0828 7.66418 58.0242 7.78137C57.9773 7.89856 57.9304 8.01575 57.8835 8.13293C57.8367 8.2384 57.8015 8.35559 57.7781 8.4845C57.7546 8.60168 57.7488 8.74231 57.7605 8.90637C57.5964 9.31653 57.3796 9.69153 57.1101 10.0314C56.8406 10.3595 56.5769 10.6993 56.3191 11.0509C56.073 11.1447 55.8445 11.2677 55.6335 11.42C55.4343 11.5724 55.241 11.7423 55.0535 11.9298C54.6902 12.047 54.3328 12.1818 53.9812 12.3341C53.6296 12.4865 53.3132 12.6915 53.032 12.9493C52.8093 12.9728 52.5867 13.0079 52.364 13.0548C52.1414 13.1017 51.9246 13.172 51.7136 13.2657H51.5027C51.3972 13.2657 51.321 13.2423 51.2742 13.1954C51.1218 13.2775 50.9636 13.3361 50.7996 13.3712C50.6355 13.3947 50.4714 13.4064 50.3074 13.4064C50.0964 13.4064 49.8855 13.3947 49.6746 13.3712C49.4753 13.3361 49.2703 13.3009 49.0593 13.2657C48.9421 13.1017 48.7781 12.9786 48.5671 12.8966C48.3562 12.8029 48.1687 12.715 48.0046 12.6329C47.6648 12.1642 47.4187 11.713 47.2664 11.2794C47.114 10.8341 46.9558 10.3361 46.7917 9.78528C46.8152 9.62122 46.8562 9.46301 46.9148 9.31067C46.9734 9.14661 46.9968 8.97083 46.9851 8.78333C47.196 8.17395 47.4714 7.62317 47.8113 7.13098C48.1628 6.62708 48.5613 6.14661 49.0066 5.68958C49.0066 5.61926 49.0183 5.56067 49.0417 5.51379C49.0769 5.46692 49.0828 5.39661 49.0593 5.30286C49.071 5.31458 49.0945 5.32043 49.1296 5.32043C49.2234 5.32043 49.282 5.297 49.3054 5.25012C49.3289 5.19153 49.3347 5.12708 49.323 5.05676C49.7449 4.78723 50.1257 4.47668 50.4656 4.12512C50.8171 3.77356 51.2156 3.48059 51.6609 3.24622C51.696 3.14075 51.7546 3.05286 51.8367 2.98254C51.9187 2.91223 51.9832 2.8302 52.03 2.73645C52.405 2.63098 52.7449 2.47278 53.0496 2.26184C53.3542 2.0509 53.6765 1.8634 54.0164 1.69934C54.2039 1.59387 54.3796 1.52356 54.5437 1.4884C54.7195 1.44153 54.907 1.39465 55.1062 1.34778C55.1765 1.32434 55.241 1.30676 55.2996 1.29504C55.3582 1.28333 55.4226 1.27747 55.4929 1.27747C55.7039 1.27747 55.9089 1.31848 56.1082 1.40051C56.3074 1.47083 56.5125 1.50598 56.7234 1.50598C56.782 1.50598 56.8289 1.50598 56.864 1.50598C56.9109 1.49426 56.9578 1.48254 57.0046 1.47083C57.2039 1.71692 57.4558 1.90442 57.7605 2.03333C57.8308 2.20911 57.9128 2.36145 58.0066 2.49036C58.1121 2.61926 58.2175 2.74817 58.323 2.87708C58.4285 2.99426 58.5222 3.12903 58.6042 3.28137C58.698 3.422 58.7566 3.59192 58.78 3.79114ZM57.0222 4.7052C57.0222 4.64661 57.0164 4.59387 57.0046 4.547C56.8875 4.51184 56.7761 4.46497 56.6707 4.40637C56.5652 4.34778 56.448 4.31848 56.3191 4.31848C56.2371 4.31848 56.155 4.33606 56.073 4.37122C56.0613 4.28918 56.0261 4.23059 55.9675 4.19543C55.9207 4.16028 55.8621 4.13098 55.7917 4.10754C55.7332 4.07239 55.6687 4.04895 55.5984 4.03723C55.5398 4.01379 55.4871 3.97864 55.4402 3.93176C55.405 3.83801 55.364 3.74426 55.3171 3.65051C55.282 3.54504 55.2117 3.46887 55.1062 3.422C55.0007 3.52747 54.8777 3.61536 54.7371 3.68567C54.5964 3.74426 54.45 3.80286 54.2976 3.86145C54.157 3.92004 54.0164 3.99036 53.8757 4.07239C53.7468 4.15442 53.6355 4.25403 53.5417 4.37122H53.2253C53.155 4.50012 53.0554 4.59973 52.9265 4.67004C52.7976 4.72864 52.6863 4.81653 52.5925 4.93372C52.405 5.02747 52.2292 5.14465 52.0652 5.28528C51.9128 5.41418 51.7605 5.55481 51.6082 5.70715C51.4558 5.84778 51.3035 5.99426 51.1511 6.14661C51.0105 6.29895 50.8582 6.43958 50.6941 6.56848C50.5417 6.89661 50.3718 7.18372 50.1843 7.42981C50.0085 7.66418 49.8386 7.90442 49.6746 8.15051C49.5222 8.39661 49.3875 8.66614 49.2703 8.95911C49.1648 9.24036 49.1121 9.59192 49.1121 10.0138V10.1896C49.1121 10.2482 49.1179 10.3068 49.1296 10.3654C49.282 10.5294 49.405 10.7052 49.4988 10.8927C49.6042 11.0802 49.7742 11.215 50.0085 11.297C50.2429 11.3907 50.489 11.4318 50.7468 11.42C51.0164 11.4083 51.2742 11.4376 51.5203 11.5079C52.0828 11.4025 52.6218 11.2325 53.1375 10.9982C53.6648 10.7521 54.1628 10.4591 54.6316 10.1193C54.7019 10.0607 54.7839 10.0021 54.8777 9.94348C54.9714 9.87317 55.0476 9.80286 55.1062 9.73254C55.1648 9.67395 55.2117 9.6095 55.2468 9.53918C55.2937 9.46887 55.3406 9.40442 55.3875 9.34583C55.4812 9.19348 55.5867 9.04114 55.7039 8.88879C55.821 8.73645 55.9441 8.59583 56.073 8.46692C56.1316 8.20911 56.2078 7.96301 56.3015 7.72864C56.3953 7.48254 56.489 7.24231 56.5828 7.00793C56.6765 6.77356 56.7527 6.53333 56.8113 6.28723C56.8816 6.04114 56.9167 5.78333 56.9167 5.51379C56.9167 5.4552 56.9109 5.39075 56.8992 5.32043C56.8992 5.25012 56.8933 5.18567 56.8816 5.12708C56.9753 4.99817 57.0222 4.85754 57.0222 4.7052ZM71.6254 5.30286C71.6254 5.42004 71.5844 5.49622 71.5024 5.53137C71.4203 5.56653 71.3793 5.63684 71.3793 5.74231C71.3793 5.77747 71.391 5.80676 71.4145 5.8302C71.4379 5.85364 71.4496 5.88879 71.4496 5.93567V6.00598C71.309 6.68567 71.1039 7.27747 70.8344 7.78137C70.5766 8.28528 70.2719 8.74817 69.9203 9.17004C69.5688 9.59192 69.1703 9.99036 68.725 10.3654C68.2914 10.7404 67.8227 11.1329 67.3188 11.5431C67.1781 11.6603 67.0317 11.7775 66.8793 11.8947C66.7387 12.0118 66.6039 12.1349 66.475 12.2638L66.0883 12.6329C66.0766 12.6447 66.0121 12.674 65.8949 12.7208C65.7778 12.756 65.7074 12.7794 65.684 12.7911C65.5199 12.8615 65.3442 12.9435 65.1567 13.0372C64.9809 13.131 64.8285 13.2482 64.6996 13.3888C64.4653 13.3888 64.266 13.424 64.102 13.4943C63.9379 13.5646 63.7563 13.6583 63.5571 13.7755C63.4985 13.7755 63.4457 13.7638 63.3988 13.7404C63.3637 13.7169 63.3227 13.6935 63.2758 13.67C63.2289 13.6466 63.1762 13.6349 63.1176 13.6349C63.0707 13.6232 63.0063 13.629 62.9242 13.6525C62.7836 13.4181 62.6313 13.2189 62.4672 13.0548C62.3031 12.8907 62.0805 12.7911 61.7992 12.756C61.7641 12.5568 61.6821 12.4044 61.5531 12.299C61.4242 12.1818 61.2953 12.0587 61.1664 11.9298C61.143 11.8595 61.1254 11.7775 61.1137 11.6837C61.102 11.59 61.0785 11.5021 61.0434 11.42C61.0082 11.338 60.9613 11.2677 60.9028 11.2091C60.8442 11.1505 60.7621 11.1212 60.6567 11.1212C60.6449 11.0509 60.6742 11.0157 60.7446 11.0157C60.8149 11.0157 60.85 10.9865 60.85 10.9279C60.85 10.8575 60.8383 10.7872 60.8149 10.7169C60.7914 10.6466 60.7797 10.5704 60.7797 10.4884C60.7797 10.4298 60.7856 10.3771 60.7973 10.3302C60.809 10.2833 60.8266 10.2306 60.85 10.172C60.8149 9.85559 60.7973 9.53333 60.7973 9.2052C60.7973 8.57239 60.8383 7.95129 60.9203 7.34192C61.0141 6.72083 61.061 6.09387 61.061 5.46106C61.061 5.17981 61.0434 4.89856 61.0082 4.61731C60.9848 4.33606 60.9321 4.06067 60.85 3.79114C60.5805 3.84973 60.311 3.92004 60.0414 4.00208C59.7719 4.07239 59.5199 4.172 59.2856 4.3009C59.1567 4.21887 59.0219 4.172 58.8813 4.16028C58.7289 4.13684 58.5824 4.10168 58.4418 4.05481C58.3598 3.89075 58.3188 3.72083 58.3188 3.54504C58.3188 3.38098 58.3481 3.22278 58.4067 3.07043L58.5824 2.6134C58.8637 2.55481 59.1449 2.46692 59.4262 2.34973C59.6957 2.23254 59.9711 2.12708 60.2524 2.03333C60.3461 2.00989 60.4633 1.98059 60.6039 1.94543C60.7563 1.91028 60.8617 1.88098 60.9203 1.85754C61.0024 1.82239 61.0551 1.75793 61.0785 1.66418C61.1137 1.55872 61.1606 1.47083 61.2192 1.40051H61.518C61.5883 1.40051 61.6645 1.40637 61.7465 1.41809C61.8285 1.41809 61.9047 1.43567 61.975 1.47083C62.3969 1.36536 62.8188 1.3009 63.2406 1.27747C63.6625 1.24231 64.0961 1.19543 64.5414 1.13684C64.5883 1.13684 64.6586 1.13098 64.7524 1.11926L65.0512 1.06653C65.1567 1.04309 65.2504 1.02551 65.3324 1.01379C65.4262 0.990356 65.4906 0.978638 65.5258 0.978638C65.561 0.978638 65.5785 0.996216 65.5785 1.03137H65.8774C66.3813 1.03137 66.8735 1.09583 67.3539 1.22473L68.7953 1.61145C68.9946 1.77551 69.1938 1.93372 69.393 2.08606C69.5922 2.2384 69.8149 2.37317 70.061 2.49036C70.1196 2.67786 70.2074 2.8302 70.3246 2.94739C70.4535 3.05286 70.5942 3.17004 70.7465 3.29895C70.8051 3.45129 70.8813 3.61536 70.975 3.79114C71.0805 3.9552 71.1801 4.12512 71.2738 4.3009C71.3676 4.47668 71.4496 4.65247 71.5199 4.82825C71.5903 4.99231 71.6254 5.15051 71.6254 5.30286ZM69.9906 5.56653C69.8617 5.297 69.7387 5.01575 69.6215 4.72278C69.5043 4.42981 69.3578 4.16614 69.1821 3.93176C68.9711 3.87317 68.7543 3.80286 68.5317 3.72083C68.3207 3.62708 68.1742 3.46887 68.0922 3.24622C68.0688 3.25793 68.0278 3.26379 67.9692 3.26379C67.8637 3.26379 67.7699 3.22278 67.6879 3.14075C67.6059 3.05872 67.5121 3.00598 67.4067 2.98254C67.3129 2.97083 67.184 2.95325 67.0199 2.92981C66.8676 2.90637 66.7035 2.88879 66.5278 2.87708C66.352 2.86536 66.1762 2.85364 66.0004 2.84192C65.8363 2.8302 65.7074 2.82434 65.6137 2.82434C65.5199 2.82434 65.4203 2.8302 65.3149 2.84192C65.2211 2.84192 65.1215 2.84778 65.016 2.8595C64.9223 2.8595 64.8637 2.87708 64.8403 2.91223C64.8168 2.93567 64.7699 2.95911 64.6996 2.98254C64.641 2.95911 64.5766 2.94739 64.5063 2.94739H64.2953C64.0492 2.94739 63.8031 2.9884 63.5571 3.07043C63.3227 3.14075 63.0883 3.24036 62.8539 3.36926V3.43958C62.8539 3.53333 62.8949 3.58606 62.977 3.59778C63.059 3.6095 63.1059 3.65637 63.1176 3.7384C63.059 3.7384 63.0121 3.74426 62.977 3.75598C62.9418 3.75598 62.9242 3.797 62.9242 3.87903C62.9242 3.99622 62.936 4.12512 62.9594 4.26575C62.9946 4.40637 63.0121 4.547 63.0121 4.68762C63.0121 4.79309 63.0004 4.91614 62.977 5.05676C62.9535 5.19739 62.8949 5.30872 62.8012 5.39075C62.9184 5.49622 62.977 5.63684 62.977 5.81262C62.977 5.92981 62.9535 6.05286 62.9067 6.18176C62.8598 6.31067 62.8012 6.422 62.7309 6.51575C62.7074 7.00793 62.6606 7.50598 62.5903 8.00989C62.5199 8.51379 62.4848 9.01184 62.4848 9.50403C62.4848 9.75012 62.4965 9.99036 62.5199 10.2247C62.5551 10.4591 62.6078 10.6935 62.6781 10.9279C62.8071 11.0568 62.9418 11.1564 63.0824 11.2267C63.2348 11.297 63.393 11.3673 63.5571 11.4376V11.4904C63.5571 11.5255 63.5336 11.5607 63.4867 11.5958C63.4399 11.631 63.4164 11.6779 63.4164 11.7365C63.4164 11.7833 63.4399 11.8068 63.4867 11.8068C63.9789 11.6661 64.4418 11.4962 64.8754 11.297C65.309 11.0978 65.7133 10.8282 66.0883 10.4884C66.1235 10.4532 66.1586 10.4357 66.1938 10.4357C66.2172 10.4357 66.2465 10.4415 66.2817 10.4532C66.3285 10.465 66.3696 10.4767 66.4047 10.4884L66.3871 10.4181C66.3871 10.3478 66.4047 10.2833 66.4399 10.2247C66.4867 10.1661 66.5395 10.1134 66.5981 10.0665L66.7738 9.90833C66.8324 9.84973 66.8793 9.79114 66.9145 9.73254C67.0082 9.70911 67.0727 9.66223 67.1078 9.59192C67.1547 9.52161 67.2309 9.48645 67.3363 9.48645C67.3598 9.35754 67.4242 9.26379 67.5297 9.2052C67.6352 9.13489 67.6996 9.03528 67.7231 8.90637C67.9574 8.77747 68.1625 8.61926 68.3383 8.43176C68.5258 8.24426 68.6957 8.04504 68.8481 7.83411C69.0121 7.62317 69.1645 7.40637 69.3051 7.18372C69.4457 6.94934 69.5922 6.72668 69.7446 6.51575V6.44543C69.7446 6.25793 69.7738 6.10559 69.8324 5.9884C69.9028 5.87122 69.9555 5.73059 69.9906 5.56653ZM83.2185 11.5607C83.1599 11.6544 83.0896 11.7423 83.0076 11.8243C82.9256 11.8947 82.8494 11.9708 82.7791 12.0529C82.6971 12.088 82.6033 12.1056 82.4978 12.1056C82.4041 12.1056 82.3103 12.1056 82.2166 12.1056C82.1346 12.0939 82.0525 12.0939 81.9705 12.1056C81.9002 12.1056 81.8416 12.129 81.7947 12.1759C81.701 12.1525 81.6306 12.1115 81.5838 12.0529C81.5369 11.9825 81.4549 11.9415 81.3377 11.9298C81.2908 11.9181 81.2439 11.9181 81.1971 11.9298C81.0213 11.7306 80.8572 11.5197 80.7049 11.297C80.5642 11.0743 80.4295 10.8634 80.3006 10.6642C80.2888 10.2306 80.2537 9.79114 80.1951 9.34583C80.1834 9.24036 80.1658 9.13489 80.1424 9.02942C80.1189 8.92395 80.1013 8.82434 80.0896 8.73059C80.0896 8.6134 80.0955 8.50208 80.1072 8.39661C80.1306 8.27942 80.1482 8.17395 80.1599 8.0802C80.2068 7.74036 80.2596 7.40637 80.3181 7.07825C80.3767 6.75012 80.4295 6.41614 80.4763 6.07629C80.5232 5.77161 80.5467 5.4552 80.5467 5.12708C80.5467 4.78723 80.4939 4.47083 80.3885 4.17786L80.3709 4.08997C80.3943 3.99622 80.4178 3.92004 80.4412 3.86145C80.4763 3.79114 80.4998 3.71497 80.5115 3.63293C80.5349 3.50403 80.5056 3.41028 80.4236 3.35168C80.4588 3.25793 80.5174 3.19934 80.5994 3.1759C80.6814 3.14075 80.7283 3.07043 80.74 2.96497C80.7517 2.91809 80.7517 2.87122 80.74 2.82434C80.8338 2.78918 80.9275 2.75989 81.0213 2.73645C81.1267 2.70129 81.2263 2.69543 81.3201 2.71887C81.4724 2.74231 81.6072 2.79504 81.7244 2.87708C81.8416 2.94739 81.9529 3.02942 82.0584 3.12317C82.2459 3.68567 82.3221 4.28333 82.2869 4.91614C82.2517 5.53723 82.1931 6.16418 82.1111 6.797C82.0291 7.42981 81.9763 8.0509 81.9529 8.66028C81.9295 9.25793 82.0232 9.81458 82.2342 10.3302L82.2693 10.3478C82.3279 10.3595 82.3748 10.3419 82.4099 10.295C82.4451 10.2365 82.492 10.213 82.5506 10.2247C82.5974 10.2482 82.6267 10.2599 82.6385 10.2599C82.6853 10.4943 82.7615 10.7169 82.867 10.9279C82.9724 11.1388 83.0896 11.3497 83.2185 11.5607ZM96.521 5.30286C96.521 5.42004 96.4799 5.49622 96.3979 5.53137C96.3159 5.56653 96.2749 5.63684 96.2749 5.74231C96.2749 5.77747 96.2866 5.80676 96.31 5.8302C96.3335 5.85364 96.3452 5.88879 96.3452 5.93567V6.00598C96.2046 6.68567 95.9995 7.27747 95.7299 7.78137C95.4721 8.28528 95.1674 8.74817 94.8159 9.17004C94.4643 9.59192 94.0659 9.99036 93.6206 10.3654C93.187 10.7404 92.7182 11.1329 92.2143 11.5431C92.0737 11.6603 91.9272 11.7775 91.7749 11.8947C91.6342 12.0118 91.4995 12.1349 91.3706 12.2638L90.9839 12.6329C90.9721 12.6447 90.9077 12.674 90.7905 12.7208C90.6733 12.756 90.603 12.7794 90.5796 12.7911C90.4155 12.8615 90.2397 12.9435 90.0522 13.0372C89.8764 13.131 89.7241 13.2482 89.5952 13.3888C89.3608 13.3888 89.1616 13.424 88.9975 13.4943C88.8335 13.5646 88.6518 13.6583 88.4526 13.7755C88.394 13.7755 88.3413 13.7638 88.2944 13.7404C88.2592 13.7169 88.2182 13.6935 88.1714 13.67C88.1245 13.6466 88.0717 13.6349 88.0132 13.6349C87.9663 13.6232 87.9018 13.629 87.8198 13.6525C87.6792 13.4181 87.5268 13.2189 87.3628 13.0548C87.1987 12.8907 86.976 12.7911 86.6948 12.756C86.6596 12.5568 86.5776 12.4044 86.4487 12.299C86.3198 12.1818 86.1909 12.0587 86.062 11.9298C86.0385 11.8595 86.021 11.7775 86.0092 11.6837C85.9975 11.59 85.9741 11.5021 85.9389 11.42C85.9038 11.338 85.8569 11.2677 85.7983 11.2091C85.7397 11.1505 85.6577 11.1212 85.5522 11.1212C85.5405 11.0509 85.5698 11.0157 85.6401 11.0157C85.7104 11.0157 85.7456 10.9865 85.7456 10.9279C85.7456 10.8575 85.7339 10.7872 85.7104 10.7169C85.687 10.6466 85.6753 10.5704 85.6753 10.4884C85.6753 10.4298 85.6811 10.3771 85.6928 10.3302C85.7046 10.2833 85.7221 10.2306 85.7456 10.172C85.7104 9.85559 85.6928 9.53333 85.6928 9.2052C85.6928 8.57239 85.7339 7.95129 85.8159 7.34192C85.9096 6.72083 85.9565 6.09387 85.9565 5.46106C85.9565 5.17981 85.9389 4.89856 85.9038 4.61731C85.8803 4.33606 85.8276 4.06067 85.7456 3.79114C85.476 3.84973 85.2065 3.92004 84.937 4.00208C84.6674 4.07239 84.4155 4.172 84.1811 4.3009C84.0522 4.21887 83.9174 4.172 83.7768 4.16028C83.6245 4.13684 83.478 4.10168 83.3374 4.05481C83.2553 3.89075 83.2143 3.72083 83.2143 3.54504C83.2143 3.38098 83.2436 3.22278 83.3022 3.07043L83.478 2.6134C83.7592 2.55481 84.0405 2.46692 84.3217 2.34973C84.5913 2.23254 84.8667 2.12708 85.1479 2.03333C85.2417 2.00989 85.3589 1.98059 85.4995 1.94543C85.6518 1.91028 85.7573 1.88098 85.8159 1.85754C85.8979 1.82239 85.9507 1.75793 85.9741 1.66418C86.0092 1.55872 86.0561 1.47083 86.1147 1.40051H86.4135C86.4839 1.40051 86.56 1.40637 86.6421 1.41809C86.7241 1.41809 86.8003 1.43567 86.8706 1.47083C87.2924 1.36536 87.7143 1.3009 88.1362 1.27747C88.5581 1.24231 88.9917 1.19543 89.437 1.13684C89.4839 1.13684 89.5542 1.13098 89.6479 1.11926L89.9467 1.06653C90.0522 1.04309 90.146 1.02551 90.228 1.01379C90.3217 0.990356 90.3862 0.978638 90.4214 0.978638C90.4565 0.978638 90.4741 0.996216 90.4741 1.03137H90.7729C91.2768 1.03137 91.769 1.09583 92.2495 1.22473L93.6909 1.61145C93.8901 1.77551 94.0893 1.93372 94.2885 2.08606C94.4878 2.2384 94.7104 2.37317 94.9565 2.49036C95.0151 2.67786 95.103 2.8302 95.2202 2.94739C95.3491 3.05286 95.4897 3.17004 95.6421 3.29895C95.7007 3.45129 95.7768 3.61536 95.8706 3.79114C95.976 3.9552 96.0757 4.12512 96.1694 4.3009C96.2632 4.47668 96.3452 4.65247 96.4155 4.82825C96.4858 4.99231 96.521 5.15051 96.521 5.30286ZM94.8862 5.56653C94.7573 5.297 94.6342 5.01575 94.5171 4.72278C94.3999 4.42981 94.2534 4.16614 94.0776 3.93176C93.8667 3.87317 93.6499 3.80286 93.4272 3.72083C93.2163 3.62708 93.0698 3.46887 92.9878 3.24622C92.9643 3.25793 92.9233 3.26379 92.8647 3.26379C92.7592 3.26379 92.6655 3.22278 92.5835 3.14075C92.5014 3.05872 92.4077 3.00598 92.3022 2.98254C92.2085 2.97083 92.0796 2.95325 91.9155 2.92981C91.7632 2.90637 91.5991 2.88879 91.4233 2.87708C91.2475 2.86536 91.0717 2.85364 90.896 2.84192C90.7319 2.8302 90.603 2.82434 90.5092 2.82434C90.4155 2.82434 90.3159 2.8302 90.2104 2.84192C90.1167 2.84192 90.0171 2.84778 89.9116 2.8595C89.8178 2.8595 89.7592 2.87708 89.7358 2.91223C89.7124 2.93567 89.6655 2.95911 89.5952 2.98254C89.5366 2.95911 89.4721 2.94739 89.4018 2.94739H89.1909C88.9448 2.94739 88.6987 2.9884 88.4526 3.07043C88.2182 3.14075 87.9839 3.24036 87.7495 3.36926V3.43958C87.7495 3.53333 87.7905 3.58606 87.8725 3.59778C87.9546 3.6095 88.0014 3.65637 88.0132 3.7384C87.9546 3.7384 87.9077 3.74426 87.8725 3.75598C87.8374 3.75598 87.8198 3.797 87.8198 3.87903C87.8198 3.99622 87.8315 4.12512 87.8549 4.26575C87.8901 4.40637 87.9077 4.547 87.9077 4.68762C87.9077 4.79309 87.896 4.91614 87.8725 5.05676C87.8491 5.19739 87.7905 5.30872 87.6967 5.39075C87.8139 5.49622 87.8725 5.63684 87.8725 5.81262C87.8725 5.92981 87.8491 6.05286 87.8022 6.18176C87.7553 6.31067 87.6967 6.422 87.6264 6.51575C87.603 7.00793 87.5561 7.50598 87.4858 8.00989C87.4155 8.51379 87.3803 9.01184 87.3803 9.50403C87.3803 9.75012 87.3921 9.99036 87.4155 10.2247C87.4507 10.4591 87.5034 10.6935 87.5737 10.9279C87.7026 11.0568 87.8374 11.1564 87.978 11.2267C88.1303 11.297 88.2885 11.3673 88.4526 11.4376V11.4904C88.4526 11.5255 88.4292 11.5607 88.3823 11.5958C88.3354 11.631 88.312 11.6779 88.312 11.7365C88.312 11.7833 88.3354 11.8068 88.3823 11.8068C88.8745 11.6661 89.3374 11.4962 89.771 11.297C90.2046 11.0978 90.6089 10.8282 90.9839 10.4884C91.019 10.4532 91.0542 10.4357 91.0893 10.4357C91.1128 10.4357 91.1421 10.4415 91.1772 10.4532C91.2241 10.465 91.2651 10.4767 91.3003 10.4884L91.2827 10.4181C91.2827 10.3478 91.3003 10.2833 91.3354 10.2247C91.3823 10.1661 91.435 10.1134 91.4936 10.0665L91.6694 9.90833C91.728 9.84973 91.7749 9.79114 91.81 9.73254C91.9038 9.70911 91.9682 9.66223 92.0034 9.59192C92.0503 9.52161 92.1264 9.48645 92.2319 9.48645C92.2553 9.35754 92.3198 9.26379 92.4253 9.2052C92.5307 9.13489 92.5952 9.03528 92.6186 8.90637C92.853 8.77747 93.0581 8.61926 93.2339 8.43176C93.4214 8.24426 93.5913 8.04504 93.7436 7.83411C93.9077 7.62317 94.06 7.40637 94.2007 7.18372C94.3413 6.94934 94.4878 6.72668 94.6401 6.51575V6.44543C94.6401 6.25793 94.6694 6.10559 94.728 5.9884C94.7983 5.87122 94.851 5.73059 94.8862 5.56653ZM108.241 2.78918V2.8595C108.159 2.88293 108.118 2.94153 108.118 3.03528C107.989 3.09387 107.855 3.14075 107.714 3.1759C107.573 3.19934 107.439 3.24036 107.31 3.29895C107.181 3.28723 107.046 3.28137 106.905 3.28137C106.777 3.26965 106.648 3.26379 106.519 3.26379C106.167 3.26379 105.816 3.27551 105.464 3.29895C105.112 3.32239 104.761 3.32239 104.409 3.29895C104.245 3.3927 104.064 3.46887 103.864 3.52747C103.677 3.57434 103.495 3.59778 103.319 3.59778C103.179 3.59778 103.056 3.5802 102.95 3.54504C102.669 3.68567 102.359 3.80286 102.019 3.89661C101.691 3.99036 101.357 4.08411 101.017 4.17786C100.677 4.25989 100.349 4.3595 100.032 4.47668C99.7277 4.58215 99.4581 4.7345 99.2238 4.93372C99.2003 5.09778 99.1828 5.26184 99.171 5.4259C99.1593 5.57825 99.1535 5.73059 99.1535 5.88293C99.1535 6.047 99.1593 6.19934 99.171 6.33997C99.1945 6.48059 99.2355 6.62122 99.2941 6.76184C99.3527 6.78528 99.4171 6.80286 99.4874 6.81458C99.5695 6.82629 99.6398 6.83215 99.6984 6.83215C99.757 6.83215 99.8156 6.82629 99.8742 6.81458C99.9328 6.79114 99.9738 6.75012 99.9972 6.69153C100.173 6.66809 100.349 6.66223 100.525 6.67395C100.7 6.67395 100.876 6.67395 101.052 6.67395C101.228 6.67395 101.398 6.66809 101.562 6.65637C101.737 6.64465 101.907 6.61536 102.071 6.56848C102.259 6.52161 102.441 6.49231 102.616 6.48059C102.804 6.46887 102.985 6.45715 103.161 6.44543C103.337 6.43372 103.519 6.41614 103.706 6.3927C103.894 6.35754 104.087 6.29309 104.286 6.19934C104.439 6.25793 104.591 6.28723 104.743 6.28723C104.907 6.28723 105.066 6.29895 105.218 6.32239C105.3 6.38098 105.364 6.44543 105.411 6.51575C105.47 6.58606 105.499 6.66809 105.499 6.76184C105.499 6.9259 105.441 7.08997 105.323 7.25403C105.206 7.41809 105.112 7.57043 105.042 7.71106H104.849C104.568 7.71106 104.292 7.75208 104.023 7.83411C103.765 7.90442 103.501 7.99231 103.232 8.09778C102.974 8.19153 102.71 8.27942 102.441 8.36145C102.183 8.43176 101.913 8.46692 101.632 8.46692C101.585 8.46692 101.556 8.49622 101.544 8.55481C101.544 8.60168 101.532 8.63684 101.509 8.66028C101.45 8.64856 101.362 8.6427 101.245 8.6427C100.976 8.6427 100.718 8.672 100.472 8.73059C100.226 8.78918 99.9738 8.81848 99.716 8.81848C99.6456 8.81848 99.5753 8.81848 99.505 8.81848C99.4347 8.80676 99.3644 8.79504 99.2941 8.78333C99.2355 8.87708 99.1593 8.94153 99.0656 8.97668C98.9718 9.00012 98.8839 9.047 98.8019 9.11731C98.7667 9.22278 98.7433 9.35168 98.7316 9.50403C98.7316 9.65637 98.7257 9.81458 98.714 9.97864C98.714 10.131 98.7023 10.2775 98.6788 10.4181C98.6554 10.5587 98.6085 10.67 98.5382 10.7521C98.5499 10.8107 98.5968 10.8341 98.6788 10.8224C98.7609 10.799 98.8019 10.8341 98.8019 10.9279C98.8019 11.0333 98.7902 11.1447 98.7667 11.2618C98.7433 11.379 98.7316 11.4962 98.7316 11.6134C98.7316 11.8361 98.755 12.0822 98.8019 12.3517C98.8605 12.6095 98.9425 12.8497 99.048 13.0724C99.1652 13.295 99.3175 13.4825 99.505 13.6349C99.6925 13.7755 99.9269 13.8458 100.208 13.8458C100.396 13.8458 100.571 13.8107 100.735 13.7404C100.9 13.67 101.034 13.5529 101.14 13.3888L101.228 13.3712C101.275 13.3712 101.316 13.3771 101.351 13.3888C101.398 13.4005 101.444 13.4064 101.491 13.4064C101.562 13.4064 101.65 13.3654 101.755 13.2833C101.872 13.1896 101.995 13.0841 102.124 12.9669C102.265 12.8497 102.405 12.7384 102.546 12.6329C102.687 12.5157 102.821 12.4337 102.95 12.3868C103.032 12.2228 103.109 12.0587 103.179 11.8947C103.261 11.7306 103.378 11.6017 103.53 11.5079V10.9982C103.648 10.8693 103.771 10.7521 103.9 10.6466C104.04 10.5411 104.146 10.4064 104.216 10.2423C104.275 10.2657 104.327 10.2833 104.374 10.295C104.433 10.3068 104.491 10.3126 104.55 10.3126C104.609 10.3126 104.667 10.3068 104.726 10.295C104.796 10.2833 104.86 10.2657 104.919 10.2423C105.013 10.3712 105.083 10.5177 105.13 10.6818C105.189 10.8341 105.259 10.9806 105.341 11.1212C105.235 11.3322 105.112 11.5841 104.972 11.8771C104.831 12.17 104.679 12.463 104.515 12.756C104.351 13.049 104.175 13.3302 103.987 13.5997C103.812 13.8575 103.636 14.0568 103.46 14.1974C103.425 14.2325 103.349 14.2736 103.232 14.3204C103.103 14.4142 102.985 14.5021 102.88 14.5841C102.775 14.6779 102.675 14.7833 102.581 14.9005C102.241 15.006 101.913 15.1466 101.597 15.3224C101.292 15.4982 100.987 15.6681 100.683 15.8322C100.542 15.797 100.39 15.7794 100.226 15.7794C100.085 15.7794 99.9445 15.7853 99.8038 15.797C99.6632 15.8204 99.5109 15.8322 99.3468 15.8322C99.2999 15.7736 99.2296 15.7325 99.1359 15.7091C99.0538 15.6974 99.0246 15.6388 99.048 15.5333C98.6496 15.5099 98.3273 15.3986 98.0812 15.1993C97.8351 15.0118 97.6242 14.7775 97.4484 14.4962C97.2843 14.215 97.1496 13.9103 97.0441 13.5822C96.9386 13.254 96.8273 12.9376 96.7101 12.6329V12.5802C96.7101 12.5216 96.7335 12.4865 96.7804 12.4747C96.8273 12.463 96.8507 12.4279 96.8507 12.3693C96.8507 12.3458 96.8449 12.3282 96.8331 12.3165C96.798 12.1876 96.7687 12.0763 96.7453 11.9825C96.7218 11.8888 96.7101 11.7775 96.7101 11.6486C96.7101 11.4611 96.7218 11.2794 96.7453 11.1036C96.7687 10.9161 96.7804 10.7286 96.7804 10.5411C96.7804 10.3536 96.757 10.1896 96.7101 10.049C96.757 9.99036 96.798 9.91418 96.8331 9.82043C96.8566 9.71497 96.8742 9.6095 96.8859 9.50403C96.8976 9.39856 96.9035 9.29309 96.9035 9.18762C96.9152 9.08215 96.9328 8.9884 96.9562 8.90637C96.9093 8.77747 96.8683 8.66614 96.8331 8.57239C96.798 8.46692 96.7804 8.34387 96.7804 8.20325V8.0802C96.8976 7.88098 96.9972 7.6759 97.0792 7.46497C97.1613 7.25403 97.2492 7.03723 97.3429 6.81458V6.76184C97.3429 6.422 97.3312 6.08215 97.3078 5.74231C97.2843 5.40247 97.2726 5.06262 97.2726 4.72278V4.38879C97.2726 4.27161 97.2785 4.16028 97.2902 4.05481C97.3839 4.00793 97.4542 3.94348 97.5011 3.86145C97.548 3.77942 97.6183 3.71497 97.7121 3.66809H98.2921L98.3976 3.49231C98.4328 3.43372 98.4562 3.36926 98.4679 3.29895C98.5968 3.26379 98.7199 3.21692 98.8371 3.15833C98.966 3.08801 99.0831 3.0177 99.1886 2.94739C99.3527 2.85364 99.4992 2.77161 99.6281 2.70129C99.7687 2.61926 99.9035 2.55481 100.032 2.50793C100.173 2.44934 100.319 2.40247 100.472 2.36731C100.624 2.33215 100.8 2.30286 100.999 2.27942C101.093 2.27942 101.152 2.26184 101.175 2.22668C101.21 2.19153 101.257 2.15051 101.316 2.10364C101.456 2.12708 101.597 2.15051 101.737 2.17395C101.878 2.18567 102.019 2.19153 102.159 2.19153C102.441 2.19153 102.704 2.13879 102.95 2.03333C103.302 2.03333 103.648 2.02747 103.987 2.01575C104.339 2.00403 104.691 1.99817 105.042 1.99817C105.347 1.99817 105.652 2.00989 105.956 2.03333C106.261 2.05676 106.56 2.09778 106.853 2.15637C106.958 2.12122 107.075 2.10364 107.204 2.10364C107.345 2.10364 107.485 2.12122 107.626 2.15637C107.778 2.17981 107.925 2.17981 108.066 2.15637C108.077 2.28528 108.107 2.39661 108.153 2.49036C108.212 2.57239 108.241 2.672 108.241 2.78918ZM120.296 12.6857C120.261 12.8497 120.184 12.9845 120.067 13.09C119.962 13.1837 119.833 13.2599 119.68 13.3185C119.528 13.3771 119.37 13.4181 119.206 13.4415C119.054 13.4532 118.913 13.4591 118.784 13.4591C118.725 13.4591 118.667 13.4591 118.608 13.4591C118.561 13.4474 118.509 13.4415 118.45 13.4415C118.391 13.4415 118.362 13.4708 118.362 13.5294C118.362 13.588 118.333 13.629 118.274 13.6525C118.216 13.629 118.157 13.6115 118.098 13.5997C118.04 13.588 117.981 13.5822 117.923 13.5822C117.841 13.5822 117.759 13.588 117.677 13.5997C117.606 13.6115 117.536 13.6173 117.466 13.6173C117.372 13.6173 117.302 13.6056 117.255 13.5822C117.22 13.5587 117.184 13.5353 117.149 13.5118C117.126 13.4767 117.096 13.4415 117.061 13.4064C117.038 13.3712 116.997 13.3419 116.938 13.3185C116.856 13.2833 116.786 13.2775 116.727 13.3009C116.68 13.3243 116.604 13.2892 116.499 13.1954C116.358 13.0782 116.235 12.9376 116.13 12.7736C116.036 12.5978 115.942 12.4161 115.848 12.2286C115.755 12.0411 115.655 11.8536 115.55 11.6661C115.444 11.4786 115.321 11.3146 115.18 11.174H115.04C114.829 11.174 114.682 11.2618 114.6 11.4376C114.542 11.4025 114.483 11.3615 114.425 11.3146C114.366 11.256 114.302 11.2091 114.231 11.174C113.962 11.256 113.68 11.3263 113.388 11.3849C113.095 11.4435 112.802 11.4728 112.509 11.4728H112.263C112.192 11.4728 112.116 11.4611 112.034 11.4376C111.917 11.4845 111.811 11.5431 111.718 11.6134C111.624 11.672 111.518 11.7013 111.401 11.7013C111.331 11.7013 111.249 11.6779 111.155 11.631C111.085 11.631 111.05 11.6603 111.05 11.7189C111.061 11.7775 111.026 11.8068 110.944 11.8068H110.786C110.622 11.8068 110.458 11.8126 110.294 11.8243C110.141 11.8361 109.983 11.8419 109.819 11.8419C109.596 11.8419 109.368 11.8126 109.134 11.754C109.075 11.7892 109.011 11.8068 108.94 11.8068C108.893 11.8302 108.858 11.8712 108.835 11.9298C108.811 11.9767 108.788 12.0236 108.764 12.0704C108.741 12.1056 108.706 12.1407 108.659 12.1759C108.624 12.1993 108.571 12.2052 108.501 12.1935C108.477 12.3341 108.419 12.4454 108.325 12.5275C108.231 12.6095 108.184 12.7325 108.184 12.8966C108.055 12.9669 107.95 13.0548 107.868 13.1603C107.786 13.2657 107.704 13.3771 107.622 13.4943C107.54 13.6115 107.452 13.7228 107.358 13.8282C107.276 13.9337 107.171 14.0157 107.042 14.0743C106.983 14.1447 106.966 14.256 106.989 14.4083C106.86 14.5138 106.702 14.6075 106.514 14.6896C106.327 14.7716 106.151 14.8126 105.987 14.8126C105.647 14.8126 105.413 14.631 105.284 14.2677C105.284 14.1505 105.296 14.0275 105.319 13.8986C105.331 13.7579 105.354 13.629 105.389 13.5118C105.425 13.3829 105.477 13.2716 105.548 13.1779C105.618 13.0724 105.718 12.9962 105.846 12.9493C105.846 12.8439 105.811 12.7736 105.741 12.7384C105.671 12.6915 105.641 12.6154 105.653 12.5099C105.97 12.3575 106.245 12.1583 106.479 11.9122C106.714 11.6661 106.925 11.4083 107.112 11.1388C107.311 10.8575 107.511 10.5763 107.71 10.295C107.909 10.0138 108.132 9.76184 108.378 9.53918V9.17004C108.729 8.79504 108.958 8.37317 109.063 7.90442C109.192 7.88098 109.274 7.82239 109.309 7.72864C109.356 7.63489 109.38 7.52356 109.38 7.39465C109.438 7.39465 109.473 7.37122 109.485 7.32434C109.509 7.26575 109.561 7.24817 109.643 7.27161C109.749 6.99036 109.866 6.73254 109.995 6.49817C110.124 6.26379 110.253 6.02942 110.382 5.79504C110.511 5.54895 110.622 5.297 110.716 5.03918C110.821 4.78137 110.897 4.49426 110.944 4.17786C111.108 4.16614 111.196 4.08997 111.208 3.94934C111.231 3.797 111.255 3.66223 111.278 3.54504C111.454 3.38098 111.583 3.18762 111.665 2.96497C111.759 2.74231 111.841 2.51379 111.911 2.27942C111.981 2.03333 112.057 1.79309 112.139 1.55872C112.233 1.31262 112.362 1.09583 112.526 0.908325V0.855591C112.526 0.796997 112.503 0.761841 112.456 0.750122C112.409 0.726685 112.386 0.685669 112.386 0.627075C112.397 0.615356 112.403 0.603638 112.403 0.591919C112.544 0.533325 112.649 0.439575 112.72 0.310669C112.79 0.170044 112.895 0.0704346 113.036 0.0118408C113.282 0.21106 113.499 0.334106 113.686 0.380981C113.874 0.416138 114.12 0.445435 114.425 0.468872C114.577 0.632935 114.659 0.832153 114.671 1.06653C114.694 1.28918 114.735 1.51184 114.794 1.7345C114.888 2.1095 114.987 2.47864 115.093 2.84192C115.21 3.19348 115.298 3.55676 115.356 3.93176C115.391 4.15442 115.456 4.36536 115.55 4.56458C115.643 4.76379 115.708 4.96887 115.743 5.17981C115.766 5.34387 115.766 5.53137 115.743 5.74231C115.72 5.94153 115.743 6.11731 115.813 6.26965L115.936 6.5509C115.995 6.67981 116.042 6.81458 116.077 6.9552C116.124 7.09583 116.165 7.23645 116.2 7.37708C116.294 7.72864 116.376 8.1095 116.446 8.51965C116.528 8.91809 116.651 9.28137 116.815 9.6095C116.874 9.72668 116.962 9.80872 117.079 9.85559C117.208 9.90247 117.348 9.93762 117.501 9.96106C117.653 9.97278 117.8 9.97864 117.94 9.97864C118.093 9.96692 118.221 9.96106 118.327 9.96106H118.503C118.573 9.96106 118.643 9.97278 118.714 9.99622C118.761 10.09 118.784 10.172 118.784 10.2423C118.784 10.3829 118.737 10.4943 118.643 10.5763C118.55 10.6583 118.503 10.7521 118.503 10.8575C118.503 10.9161 118.526 10.9806 118.573 11.0509C118.526 11.0392 118.456 11.0333 118.362 11.0333C118.093 11.0333 117.829 11.0802 117.571 11.174C117.665 11.3732 117.788 11.5431 117.94 11.6837C118.104 11.8126 118.274 11.9357 118.45 12.0529C118.567 11.9591 118.69 11.9122 118.819 11.9122C118.96 11.9122 119.089 11.9474 119.206 12.0177C119.335 12.0763 119.47 12.1056 119.61 12.1056C119.716 12.1056 119.792 12.088 119.839 12.0529C119.932 12.1583 120.009 12.2697 120.067 12.3868C120.126 12.4923 120.202 12.5919 120.296 12.6857ZM114.794 9.87317C114.77 9.67395 114.729 9.53333 114.671 9.45129C114.624 9.35754 114.583 9.24622 114.548 9.11731C114.501 8.95325 114.466 8.77747 114.442 8.58997C114.43 8.40247 114.407 8.22083 114.372 8.04504C114.29 7.64661 114.196 7.24817 114.091 6.84973C113.997 6.45129 113.874 6.06458 113.721 5.68958C113.768 5.61926 113.792 5.55481 113.792 5.49622V5.44348C113.686 5.32629 113.61 5.18567 113.563 5.02161C113.516 4.84583 113.47 4.6759 113.423 4.51184C113.388 4.33606 113.335 4.17786 113.264 4.03723C113.206 3.88489 113.106 3.76184 112.966 3.66809C112.93 3.7384 112.913 3.82043 112.913 3.91418C112.913 3.99622 112.919 4.07239 112.93 4.1427C112.954 4.21301 112.966 4.28918 112.966 4.37122C112.848 4.42981 112.761 4.52356 112.702 4.65247C112.655 4.76965 112.573 4.8634 112.456 4.93372C112.362 5.30872 112.227 5.66614 112.052 6.00598C111.876 6.33411 111.688 6.66223 111.489 6.99036C111.302 7.31848 111.12 7.65247 110.944 7.99231C110.768 8.32043 110.628 8.66614 110.522 9.02942C110.37 9.13489 110.264 9.26965 110.206 9.43372C110.159 9.59778 110.136 9.76184 110.136 9.9259C110.241 9.9845 110.358 10.0197 110.487 10.0314C110.628 10.0314 110.763 10.0314 110.891 10.0314C111.02 10.0314 111.143 10.0431 111.261 10.0665C111.378 10.09 111.483 10.1486 111.577 10.2423C111.729 10.1954 111.893 10.1661 112.069 10.1544C112.257 10.131 112.409 10.0782 112.526 9.99622C112.761 10.0782 113.013 10.1193 113.282 10.1193C113.423 10.1193 113.557 10.1075 113.686 10.0841C113.827 10.0607 113.962 10.0314 114.091 9.99622C114.196 10.0197 114.278 10.0607 114.337 10.1193C114.395 10.1661 114.483 10.1837 114.6 10.172C114.659 10.1251 114.694 10.0782 114.706 10.0314C114.718 9.97278 114.747 9.92004 114.794 9.87317ZM141.697 2.6134C141.697 2.68372 141.662 2.74231 141.592 2.78918C141.533 2.83606 141.463 2.88293 141.381 2.92981C141.311 2.97668 141.235 3.02942 141.153 3.08801C141.082 3.14661 141.035 3.21692 141.012 3.29895H140.854C140.783 3.29895 140.748 3.32239 140.748 3.36926H140.695C140.59 3.36926 140.52 3.33997 140.485 3.28137C140.449 3.21106 140.373 3.1759 140.256 3.1759C139.963 3.1759 139.67 3.18176 139.377 3.19348C139.096 3.19348 138.809 3.19934 138.516 3.21106C137.707 3.21106 136.91 3.24036 136.125 3.29895C135.352 3.34583 134.584 3.50989 133.822 3.79114C133.799 3.80286 133.77 3.80872 133.735 3.80872C133.676 3.80872 133.641 3.78528 133.629 3.7384C133.629 3.69153 133.6 3.66809 133.541 3.66809C133.377 3.66809 133.225 3.68567 133.084 3.72083C132.944 3.75598 132.791 3.77942 132.627 3.79114C132.44 3.9552 132.223 4.08997 131.977 4.19543C131.742 4.3009 131.496 4.40637 131.238 4.51184C130.992 4.60559 130.752 4.71106 130.518 4.82825C130.283 4.93372 130.078 5.07434 129.903 5.25012C129.926 5.39075 129.944 5.53137 129.955 5.672C129.979 5.8009 129.99 5.92981 129.99 6.05872C129.99 6.56262 129.944 7.06067 129.85 7.55286C129.756 8.03333 129.709 8.51965 129.709 9.01184V9.27551C129.709 9.35754 129.715 9.44543 129.727 9.53918C129.75 9.59778 129.791 9.63879 129.85 9.66223C129.92 9.67395 129.979 9.69739 130.026 9.73254C130.178 9.62708 130.33 9.54504 130.483 9.48645C130.647 9.41614 130.811 9.35168 130.975 9.29309C131.151 9.22278 131.315 9.15833 131.467 9.09973C131.631 9.02942 131.789 8.94739 131.942 8.85364H132.434C132.563 8.75989 132.715 8.68958 132.891 8.6427C133.067 8.59583 133.184 8.49036 133.242 8.32629C133.266 8.34973 133.289 8.36145 133.313 8.36145H133.383C133.524 8.36145 133.664 8.33215 133.805 8.27356C133.957 8.21497 134.11 8.15637 134.262 8.09778C134.414 8.02747 134.567 7.96301 134.719 7.90442C134.871 7.84583 135.029 7.81653 135.194 7.81653C135.229 7.81653 135.258 7.82239 135.281 7.83411C135.317 7.83411 135.352 7.83411 135.387 7.83411C135.457 7.71692 135.557 7.62903 135.686 7.57043C135.815 7.50012 135.949 7.44153 136.09 7.39465C136.231 7.34778 136.371 7.3009 136.512 7.25403C136.664 7.20715 136.793 7.14856 136.899 7.07825H136.969C137.039 7.07825 137.092 7.09583 137.127 7.13098C137.174 7.15442 137.227 7.17786 137.285 7.20129C137.613 6.99036 137.947 6.88489 138.287 6.88489C138.639 6.87317 139.002 6.84973 139.377 6.81458C139.459 6.9552 139.529 7.07239 139.588 7.16614C139.658 7.24817 139.694 7.37122 139.694 7.53528C139.694 7.61731 139.688 7.6759 139.676 7.71106C139.547 7.75793 139.447 7.79895 139.377 7.83411L139.184 7.93958C139.125 7.96301 139.055 7.98645 138.973 8.00989C138.891 8.02161 138.774 8.02747 138.621 8.02747C138.528 8.02747 138.487 8.05676 138.498 8.11536C138.51 8.16223 138.481 8.19153 138.41 8.20325C138.246 8.26184 138.082 8.30872 137.918 8.34387C137.754 8.37903 137.59 8.4259 137.426 8.4845C137.086 8.58997 136.746 8.70715 136.406 8.83606C136.078 8.95325 135.738 9.047 135.387 9.11731C135.094 9.35168 134.778 9.54504 134.438 9.69739C134.098 9.83801 133.746 9.9552 133.383 10.049C132.996 10.3302 132.615 10.5939 132.24 10.84C131.865 11.0743 131.444 11.2736 130.975 11.4376C130.916 11.4962 130.846 11.549 130.764 11.5958C130.682 11.6427 130.629 11.713 130.606 11.8068C130.582 11.8068 130.553 11.8068 130.518 11.8068C130.494 11.795 130.465 11.7892 130.43 11.7892C130.266 11.7892 130.137 11.8302 130.043 11.9122C129.961 11.9825 129.856 12.0294 129.727 12.0529C129.668 12.2286 129.639 12.381 129.639 12.5099C129.639 12.674 129.668 12.8204 129.727 12.9493C129.785 13.0782 129.856 13.2013 129.938 13.3185C130.031 13.4357 130.125 13.5529 130.219 13.67C130.324 13.7755 130.412 13.8927 130.483 14.0216C130.459 14.1622 130.412 14.2736 130.342 14.3556C130.283 14.4493 130.213 14.5314 130.131 14.6017C130.049 14.6837 129.967 14.7657 129.885 14.8478C129.815 14.9298 129.762 15.0353 129.727 15.1642C129.516 15.1993 129.311 15.2169 129.112 15.2169C128.983 15.2169 128.848 15.1993 128.707 15.1642C128.578 15.1407 128.455 15.0939 128.338 15.0236C128.151 14.7657 128.016 14.4904 127.934 14.1974C127.863 13.9044 127.764 13.6115 127.635 13.3185L127.653 13.1954C127.653 12.9376 127.606 12.715 127.512 12.5275C127.43 12.3282 127.301 12.129 127.125 11.9298C127.137 11.9064 127.143 11.8654 127.143 11.8068C127.143 11.6544 127.096 11.5138 127.002 11.3849C127.026 11.1154 127.096 10.9044 127.213 10.7521C127.342 10.5997 127.483 10.4298 127.635 10.2423V10.0314C127.635 9.52747 127.676 9.03528 127.758 8.55481C127.852 8.06262 127.899 7.57043 127.899 7.07825C127.899 6.77356 127.875 6.50403 127.828 6.26965C127.793 6.25793 127.746 6.25208 127.688 6.25208C127.629 6.25208 127.582 6.26965 127.547 6.30481C127.512 6.32825 127.483 6.35754 127.459 6.3927C127.436 6.42786 127.406 6.46301 127.371 6.49817C127.348 6.53333 127.307 6.55676 127.248 6.56848C127.049 6.53333 126.92 6.43958 126.862 6.28723C126.803 6.13489 126.774 5.96497 126.774 5.77747C126.774 5.672 126.779 5.56653 126.791 5.46106C126.803 5.35559 126.815 5.24426 126.826 5.12708C127.272 4.63489 127.805 4.17786 128.426 3.75598C129.047 3.33411 129.662 2.99426 130.272 2.73645C130.307 2.72473 130.348 2.71887 130.395 2.71887C130.442 2.71887 130.483 2.73059 130.518 2.75403C130.553 2.76575 130.594 2.77161 130.641 2.77161C130.676 2.77161 130.705 2.75989 130.729 2.73645C130.846 2.73645 130.928 2.70129 130.975 2.63098C131.022 2.56067 131.086 2.49036 131.168 2.42004C131.25 2.47864 131.32 2.50793 131.379 2.50793C131.496 2.50793 131.613 2.4552 131.731 2.34973C131.848 2.24426 131.977 2.17981 132.117 2.15637C132.656 2.06262 133.184 1.98645 133.699 1.92786C134.227 1.86926 134.748 1.7345 135.264 1.52356C135.381 1.58215 135.498 1.61731 135.615 1.62903C135.733 1.64075 135.85 1.64661 135.967 1.64661C136.096 1.64661 136.237 1.63489 136.389 1.61145C136.553 1.57629 136.682 1.50598 136.776 1.40051C137.151 1.44739 137.549 1.46497 137.971 1.45325C138.404 1.44153 138.832 1.44739 139.254 1.47083C139.688 1.49426 140.104 1.55286 140.502 1.64661C140.901 1.74036 141.252 1.91028 141.557 2.15637C141.58 2.2384 141.61 2.31458 141.645 2.38489C141.68 2.4552 141.697 2.53137 141.697 2.6134ZM144.277 11.5607C144.219 11.6544 144.148 11.7423 144.066 11.8243C143.984 11.8947 143.908 11.9708 143.838 12.0529C143.756 12.088 143.662 12.1056 143.557 12.1056C143.463 12.1056 143.369 12.1056 143.275 12.1056C143.193 12.0939 143.111 12.0939 143.029 12.1056C142.959 12.1056 142.9 12.129 142.853 12.1759C142.76 12.1525 142.689 12.1115 142.642 12.0529C142.596 11.9825 142.514 11.9415 142.396 11.9298C142.349 11.9181 142.303 11.9181 142.256 11.9298C142.08 11.7306 141.916 11.5197 141.764 11.297C141.623 11.0743 141.488 10.8634 141.359 10.6642C141.348 10.2306 141.312 9.79114 141.254 9.34583C141.242 9.24036 141.224 9.13489 141.201 9.02942C141.178 8.92395 141.16 8.82434 141.148 8.73059C141.148 8.6134 141.154 8.50208 141.166 8.39661C141.189 8.27942 141.207 8.17395 141.219 8.0802C141.266 7.74036 141.318 7.40637 141.377 7.07825C141.435 6.75012 141.488 6.41614 141.535 6.07629C141.582 5.77161 141.605 5.4552 141.605 5.12708C141.605 4.78723 141.553 4.47083 141.447 4.17786L141.43 4.08997C141.453 3.99622 141.476 3.92004 141.5 3.86145C141.535 3.79114 141.558 3.71497 141.57 3.63293C141.594 3.50403 141.564 3.41028 141.482 3.35168C141.517 3.25793 141.576 3.19934 141.658 3.1759C141.74 3.14075 141.787 3.07043 141.799 2.96497C141.81 2.91809 141.81 2.87122 141.799 2.82434C141.892 2.78918 141.986 2.75989 142.08 2.73645C142.185 2.70129 142.285 2.69543 142.379 2.71887C142.531 2.74231 142.666 2.79504 142.783 2.87708C142.9 2.94739 143.012 3.02942 143.117 3.12317C143.305 3.68567 143.381 4.28333 143.346 4.91614C143.31 5.53723 143.252 6.16418 143.17 6.797C143.088 7.42981 143.035 8.0509 143.012 8.66028C142.988 9.25793 143.082 9.81458 143.293 10.3302L143.328 10.3478C143.387 10.3595 143.433 10.3419 143.469 10.295C143.504 10.2365 143.551 10.213 143.609 10.2247C143.656 10.2482 143.685 10.2599 143.697 10.2599C143.744 10.4943 143.82 10.7169 143.926 10.9279C144.031 11.1388 144.148 11.3497 144.277 11.5607ZM155.347 9.45129C155.347 9.5802 155.3 9.67981 155.207 9.75012C155.113 9.80872 155.066 9.89075 155.066 9.99622C155.066 10.0431 155.089 10.1017 155.136 10.172C154.972 10.172 154.861 10.2247 154.802 10.3302C154.744 10.4357 154.685 10.5529 154.626 10.6818H154.398C154.339 10.6818 154.293 10.6935 154.257 10.7169C154.222 10.7404 154.187 10.7755 154.152 10.8224C154.128 10.8575 154.093 10.9161 154.046 10.9982C153.824 11.045 153.607 11.1212 153.396 11.2267C153.197 11.3204 152.998 11.4259 152.798 11.5431C152.611 11.6486 152.418 11.7599 152.218 11.8771C152.019 11.9825 151.814 12.0704 151.603 12.1407C151.498 12.3165 151.345 12.4572 151.146 12.5626H151.093C151.035 12.5743 150.982 12.5685 150.935 12.545C150.9 12.5099 150.853 12.4923 150.794 12.4923C150.759 12.4923 150.736 12.4982 150.724 12.5099C150.373 12.7443 149.98 12.8615 149.546 12.8615C149.429 12.8615 149.318 12.8556 149.212 12.8439C149.107 12.8204 148.996 12.8087 148.878 12.8087C148.843 12.8087 148.82 12.8204 148.808 12.8439L148.773 12.9142C148.761 12.9376 148.744 12.9611 148.72 12.9845C148.709 13.0079 148.668 13.0197 148.597 13.0197C148.468 13.0197 148.339 13.0021 148.21 12.9669C148.082 12.9318 147.947 12.9259 147.806 12.9493C147.537 12.797 147.326 12.6505 147.173 12.5099C147.021 12.3693 146.88 12.1583 146.751 11.8771C146.693 11.7482 146.611 11.6251 146.505 11.5079C146.412 11.3907 146.341 11.2618 146.294 11.1212C146.283 11.0743 146.265 10.9923 146.242 10.8751C146.218 10.7462 146.195 10.6115 146.171 10.4708C146.148 10.3302 146.125 10.1954 146.101 10.0665C146.089 9.93762 146.084 9.84973 146.084 9.80286C146.084 9.66223 146.089 9.52747 146.101 9.39856C146.125 9.25793 146.148 9.11731 146.171 8.97668C146.242 8.53137 146.289 8.08606 146.312 7.64075C146.347 7.18372 146.447 6.74426 146.611 6.32239C146.587 6.19348 146.576 6.07043 146.576 5.95325V5.56653C146.576 5.34387 146.546 5.15637 146.488 5.00403C146.582 4.85168 146.628 4.68176 146.628 4.49426C146.628 4.28333 146.541 4.16028 146.365 4.12512V4.07239C146.365 3.82629 146.283 3.63293 146.119 3.49231C146.119 3.08215 146.218 2.77747 146.418 2.57825C146.628 2.36731 146.904 2.18567 147.244 2.03333C147.291 1.96301 147.308 1.90442 147.296 1.85754C147.378 1.88098 147.455 1.90442 147.525 1.92786C147.595 1.95129 147.666 1.96301 147.736 1.96301C147.853 1.96301 147.959 1.94543 148.052 1.91028C148.087 2.0509 148.175 2.13879 148.316 2.17395C148.468 2.19739 148.591 2.23254 148.685 2.27942V2.50793C148.685 2.87122 148.773 3.21692 148.949 3.54504C148.902 3.63879 148.873 3.7384 148.861 3.84387C148.849 3.94934 148.843 4.04895 148.843 4.1427C148.843 4.28333 148.849 4.42395 148.861 4.56458C148.873 4.7052 148.878 4.83997 148.878 4.96887C148.878 5.1095 148.861 5.25012 148.826 5.39075C148.802 5.53137 148.738 5.65442 148.632 5.75989C148.621 5.91223 148.609 6.08801 148.597 6.28723C148.597 6.47473 148.585 6.66809 148.562 6.86731C148.55 7.06653 148.521 7.25989 148.474 7.44739C148.427 7.63489 148.357 7.78723 148.263 7.90442C148.251 8.0802 148.24 8.26184 148.228 8.44934C148.228 8.62512 148.228 8.79504 148.228 8.95911C148.228 9.21692 148.24 9.52161 148.263 9.87317C148.298 10.2247 148.38 10.5177 148.509 10.7521C148.568 10.8458 148.679 10.9161 148.843 10.963C149.019 11.0099 149.16 11.0333 149.265 11.0333C149.394 11.0333 149.523 11.0157 149.652 10.9806C149.793 10.9337 149.892 10.8575 149.951 10.7521C150.021 10.7638 150.068 10.799 150.091 10.8575C150.115 10.9161 150.156 10.963 150.214 10.9982C150.882 10.7169 151.55 10.4474 152.218 10.1896C152.886 9.93176 153.543 9.63293 154.187 9.29309C154.281 9.33997 154.38 9.3634 154.486 9.3634C154.603 9.3634 154.72 9.35168 154.837 9.32825C154.955 9.30481 155.072 9.29309 155.189 9.29309H155.312C155.335 9.3634 155.347 9.41614 155.347 9.45129ZM171.954 11.754C171.896 11.9415 171.878 12.129 171.902 12.3165C171.866 12.3634 171.825 12.3927 171.779 12.4044C171.732 12.4161 171.685 12.4337 171.638 12.4572C171.591 12.4689 171.55 12.4923 171.515 12.5275C171.491 12.5509 171.491 12.6036 171.515 12.6857C171.128 12.7091 170.759 12.7911 170.407 12.9318C170.056 13.0724 169.71 13.2247 169.37 13.3888C169.195 13.3302 169.042 13.2599 168.913 13.1779C168.784 13.0958 168.62 13.0431 168.421 13.0197C168.222 12.6212 168.034 12.2052 167.859 11.7716C167.695 11.3263 167.613 10.881 167.613 10.4357C167.613 10.1075 167.671 9.80872 167.788 9.53918C167.788 9.18762 167.818 8.84192 167.876 8.50208C167.935 8.16223 167.999 7.82825 168.07 7.50012C168.152 7.16028 168.222 6.82043 168.28 6.48059C168.339 6.14075 168.368 5.79504 168.368 5.44348V5.05676C168.345 5.05676 168.316 5.08606 168.28 5.14465C168.245 5.19153 168.21 5.25012 168.175 5.32043C168.152 5.37903 168.128 5.43762 168.105 5.49622C168.081 5.55481 168.064 5.58997 168.052 5.60168C167.853 5.75403 167.695 5.94739 167.577 6.18176C167.472 6.40442 167.355 6.61536 167.226 6.81458C167.062 7.06067 166.886 7.3009 166.698 7.53528C166.523 7.76965 166.3 7.95129 166.03 8.0802V8.11536C166.03 8.17395 166.013 8.21497 165.978 8.2384C165.943 8.26184 165.937 8.32043 165.96 8.41418C165.667 8.50793 165.392 8.6427 165.134 8.81848C164.888 8.99426 164.683 9.21692 164.519 9.48645C164.284 9.54504 164.062 9.62708 163.851 9.73254C163.652 9.82629 163.447 9.93176 163.236 10.049C163.142 10.0958 163.042 10.1544 162.937 10.2247C162.831 10.295 162.726 10.3419 162.62 10.3654C162.527 10.4005 162.398 10.424 162.234 10.4357C162.081 10.4474 161.917 10.4591 161.741 10.4708C161.577 10.4825 161.413 10.4884 161.249 10.4884H160.863C160.804 10.4884 160.728 10.4591 160.634 10.4005C160.54 10.3419 160.435 10.2775 160.318 10.2072C160.212 10.1368 160.101 10.0724 159.984 10.0138C159.866 9.94348 159.755 9.89661 159.65 9.87317C159.556 9.56848 159.421 9.29895 159.245 9.06458C159.081 8.81848 158.905 8.57239 158.718 8.32629C158.659 8.04504 158.577 7.75208 158.472 7.44739C158.378 7.1427 158.208 6.89075 157.962 6.69153C158.021 6.6095 158.05 6.51575 158.05 6.41028C158.05 6.28137 158.021 6.15833 157.962 6.04114C157.904 5.92395 157.874 5.79504 157.874 5.65442C157.874 5.56067 157.88 5.49036 157.892 5.44348C157.763 5.58411 157.669 5.76575 157.611 5.9884C157.564 6.19934 157.54 6.3927 157.54 6.56848C157.54 6.70911 157.558 6.83801 157.593 6.9552C157.476 7.11926 157.4 7.32434 157.364 7.57043C157.341 7.81653 157.329 8.03333 157.329 8.22083C157.329 8.4552 157.347 8.68372 157.382 8.90637C157.195 9.09387 157.101 9.32239 157.101 9.59192C157.101 9.74426 157.136 9.87903 157.206 9.99622C157.206 10.0431 157.195 10.0782 157.171 10.1017C157.148 10.1251 157.118 10.1427 157.083 10.1544C157.06 10.1661 157.03 10.1837 156.995 10.2072C156.972 10.2189 156.96 10.2482 156.96 10.295C156.96 10.3536 156.96 10.4181 156.96 10.4884C156.972 10.5587 156.978 10.629 156.978 10.6993C156.978 10.8634 156.972 11.0333 156.96 11.2091C156.948 11.3849 156.943 11.5548 156.943 11.7189C156.943 12.0587 156.972 12.3048 157.03 12.4572C157.101 12.5978 157.183 12.7032 157.277 12.7736C157.382 12.8439 157.493 12.9142 157.611 12.9845C157.728 13.0548 157.845 13.1896 157.962 13.3888C157.927 13.4943 157.863 13.5822 157.769 13.6525C157.687 13.7111 157.605 13.7755 157.523 13.8458C157.452 13.9044 157.388 13.9747 157.329 14.0568C157.271 14.1388 157.247 14.256 157.259 14.4083H157.171C157.019 14.4083 156.872 14.4318 156.732 14.4786C156.591 14.5255 156.445 14.549 156.292 14.549C156.257 14.549 156.222 14.5431 156.187 14.5314C156.152 14.5314 156.116 14.5314 156.081 14.5314L155.905 14.4259C155.847 14.3907 155.788 14.3732 155.73 14.3732C155.671 14.3732 155.595 14.3849 155.501 14.4083C155.337 13.881 155.208 13.3361 155.114 12.7736C155.032 12.2111 154.991 11.6603 154.991 11.1212C154.991 11.0626 155.003 11.004 155.027 10.9454C155.062 10.8751 155.109 10.8517 155.167 10.8751V10.5411C155.167 10.1779 155.197 9.82629 155.255 9.48645C155.325 9.13489 155.361 8.77161 155.361 8.39661C155.361 8.29114 155.355 8.18567 155.343 8.0802C155.343 7.97473 155.337 7.87512 155.325 7.78137C155.384 7.58215 155.443 7.38293 155.501 7.18372C155.572 6.97278 155.607 6.75598 155.607 6.53333C155.607 6.43958 155.589 6.32825 155.554 6.19934C155.648 6.12903 155.718 6.04114 155.765 5.93567C155.812 5.81848 155.847 5.69543 155.87 5.56653C155.894 5.4259 155.911 5.29114 155.923 5.16223C155.935 5.03333 155.947 4.91614 155.958 4.81067C156.075 4.57629 156.14 4.32434 156.152 4.05481C156.163 3.78528 156.222 3.53333 156.327 3.29895C156.316 3.25208 156.31 3.17004 156.31 3.05286C156.31 2.81848 156.345 2.58411 156.415 2.34973C156.497 2.10364 156.655 1.91614 156.89 1.78723C157.101 1.86926 157.347 1.91028 157.628 1.91028C157.898 1.91028 158.155 1.86926 158.402 1.78723C158.472 1.81067 158.536 1.83997 158.595 1.87512C158.654 1.89856 158.712 1.92786 158.771 1.96301C158.841 1.98645 158.911 2.00989 158.982 2.03333C159.052 2.04504 159.134 2.04504 159.228 2.03333C159.345 2.37317 159.445 2.71887 159.527 3.07043C159.62 3.422 159.691 3.77942 159.738 4.1427C159.761 4.29504 159.767 4.45911 159.755 4.63489C159.755 4.81067 159.767 4.97473 159.79 5.12708C159.802 5.22083 159.831 5.30872 159.878 5.39075C159.925 5.46106 159.972 5.54309 160.019 5.63684C160.066 5.73059 160.101 5.83606 160.124 5.95325C160.159 6.07043 160.171 6.21692 160.159 6.3927C160.288 6.69739 160.429 6.99036 160.581 7.27161C160.745 7.54114 160.921 7.81067 161.109 8.0802C161.214 8.11536 161.308 8.16223 161.39 8.22083C161.472 8.2677 161.525 8.34973 161.548 8.46692C161.654 8.46692 161.747 8.4845 161.829 8.51965L162.128 8.60754C162.573 8.46692 162.984 8.27942 163.359 8.04504C163.745 7.81067 164.15 7.61145 164.572 7.44739C165.087 6.94348 165.532 6.38684 165.907 5.77747C166.282 5.15637 166.657 4.54114 167.032 3.93176V3.54504C167.103 3.50989 167.161 3.46887 167.208 3.422C167.267 3.3634 167.337 3.32239 167.419 3.29895C167.431 3.15833 167.46 3.02356 167.507 2.89465C167.566 2.75403 167.624 2.62512 167.683 2.50793C167.753 2.37903 167.812 2.25598 167.859 2.13879C167.905 2.00989 167.929 1.87512 167.929 1.7345C167.929 1.65247 167.923 1.58215 167.911 1.52356C168.087 1.34778 168.298 1.25989 168.544 1.25989C168.779 1.25989 169.013 1.31848 169.247 1.43567C169.493 1.54114 169.722 1.64075 169.933 1.7345C170.062 2.01575 170.155 2.31458 170.214 2.63098C170.284 2.93567 170.331 3.25208 170.355 3.5802C170.378 3.90833 170.39 4.23645 170.39 4.56458V5.81262C170.378 5.90637 170.343 5.97668 170.284 6.02356C170.238 6.05872 170.202 6.11731 170.179 6.19934V6.37512C170.179 6.43372 170.173 6.49231 170.161 6.5509C170.161 6.797 170.132 7.05481 170.073 7.32434C170.015 7.66418 169.939 8.00989 169.845 8.36145C169.763 8.70129 169.722 9.047 169.722 9.39856C169.722 9.52747 169.728 9.65637 169.739 9.78528C169.751 9.91418 169.775 10.0431 169.81 10.172C169.751 10.2775 169.722 10.4122 169.722 10.5763C169.722 10.7638 169.751 10.9396 169.81 11.1036C169.88 11.256 169.962 11.4083 170.056 11.5607C170.22 11.5607 170.384 11.5548 170.548 11.5431C170.712 11.5314 170.882 11.5255 171.058 11.5255C171.222 11.5255 171.374 11.5431 171.515 11.5782C171.655 11.6017 171.802 11.6603 171.954 11.754Z" fill="#FBFBF8"/>
</svg>
